<svg viewBox="0 0 541 170" xmlns="http://www.w3.org/2000/svg">
<rect x="0" y="0" width="541" height="170" fill="#0d1117"/>
<circle cx="8" cy="20" r="1.1" fill="#8b949e"><animate attributeName="opacity" values="0.2;1;0.2" dur="1.2s" repeatCount="indefinite"/></circle>
<circle cx="8" cy="60" r="1.1" fill="#8b949e"><animate attributeName="opacity" values="0.2;1;0.2" dur="1.6s" repeatCount="indefinite"/></circle>
<circle cx="8" cy="100" r="1.1" fill="#8b949e"><animate attributeName="opacity" values="0.2;1;0.2" dur="2s" repeatCount="indefinite"/></circle>
<circle cx="531" cy="25" r="1.1" fill="#8b949e"><animate attributeName="opacity" values="0.2;1;0.2" dur="1.2s" repeatCount="indefinite"/></circle>
<circle cx="531" cy="70" r="1.1" fill="#8b949e"><animate attributeName="opacity" values="0.2;1;0.2" dur="1.6s" repeatCount="indefinite"/></circle>
<circle cx="531" cy="110" r="1.1" fill="#8b949e"><animate attributeName="opacity" values="0.2;1;0.2" dur="2s" repeatCount="indefinite"/></circle>
<circle cx="30" cy="164" r="1.1" fill="#8b949e"><animate attributeName="opacity" values="0.2;1;0.2" dur="1.2s" repeatCount="indefinite"/></circle>
<circle cx="511" cy="164" r="1.1" fill="#8b949e"><animate attributeName="opacity" values="0.2;1;0.2" dur="1.6s" repeatCount="indefinite"/></circle>
<g id="grid">
<rect x="20.00" y="15.00" width="11" height="11" rx="2" ry="2" fill="#4a1534"/>
<rect x="20.00" y="29.00" width="11" height="11" rx="2" ry="2" fill="#e03e8c"/>
<rect x="20.00" y="43.00" width="11" height="11" rx="2" ry="2" fill="#161b22"/>
<rect x="20.00" y="57.00" width="11" height="11" rx="2" ry="2" fill="#161b22"/>
<rect x="20.00" y="71.00" width="11" height="11" rx="2" ry="2" fill="#161b22"/>
<rect x="20.00" y="85.00" width="11" height="11" rx="2" ry="2" fill="#161b22"/>
<rect x="20.00" y="99.00" width="11" height="11" rx="2" ry="2" fill="#161b22"/>
<rect x="34.00" y="15.00" width="11" height="11" rx="2" ry="2" fill="#161b22"/>
<rect x="34.00" y="29.00" width="11" height="11" rx="2" ry="2" fill="#161b22"/>
<rect x="34.00" y="43.00" width="11" height="11" rx="2" ry="2" fill="#161b22"/>
<rect x="34.00" y="57.00" width="11" height="11" rx="2" ry="2" fill="#161b22"/>
<rect x="34.00" y="71.00" width="11" height="11" rx="2" ry="2" fill="#161b22"/>
<rect x="34.00" y="85.00" width="11" height="11" rx="2" ry="2" fill="#161b22"/>
<rect x="34.00" y="99.00" width="11" height="11" rx="2" ry="2" fill="#161b22"/>
<rect x="48.00" y="15.00" width="11" height="11" rx="2" ry="2" fill="#161b22"/>
<rect x="48.00" y="29.00" width="11" height="11" rx="2" ry="2" fill="#161b22"/>
<rect x="48.00" y="43.00" width="11" height="11" rx="2" ry="2" fill="#161b22"/>
<rect x="48.00" y="57.00" width="11" height="11" rx="2" ry="2" fill="#e03e8c"/>
<rect x="48.00" y="71.00" width="11" height="11" rx="2" ry="2" fill="#161b22"/>
<rect x="48.00" y="85.00" width="11" height="11" rx="2" ry="2" fill="#161b22"/>
<rect x="48.00" y="99.00" width="11" height="11" rx="2" ry="2" fill="#161b22"/>
<rect x="62.00" y="15.00" width="11" height="11" rx="2" ry="2" fill="#161b22"/>
<rect x="62.00" y="29.00" width="11" height="11" rx="2" ry="2" fill="#161b22"/>
<rect x="62.00" y="43.00" width="11" height="11" rx="2" ry="2" fill="#161b22"/>
<rect x="62.00" y="57.00" width="11" height="11" rx="2" ry="2" fill="#161b22"/>
<rect x="62.00" y="71.00" width="11" height="11" rx="2" ry="2" fill="#161b22"/>
<rect x="62.00" y="85.00" width="11" height="11" rx="2" ry="2" fill="#161b22"/>
<rect x="62.00" y="99.00" width="11" height="11" rx="2" ry="2" fill="#161b22"/>
<rect x="76.00" y="15.00" width="11" height="11" rx="2" ry="2" fill="#e03e8c"/>
<rect x="76.00" y="29.00" width="11" height="11" rx="2" ry="2" fill="#161b22"/>
<rect x="76.00" y="43.00" width="11" height="11" rx="2" ry="2" fill="#161b22"/>
<rect x="76.00" y="57.00" width="11" height="11" rx="2" ry="2" fill="#4a1534"/>
<rect x="76.00" y="71.00" width="11" height="11" rx="2" ry="2" fill="#161b22"/>
<rect x="76.00" y="85.00" width="11" height="11" rx="2" ry="2" fill="#161b22"/>
<rect x="76.00" y="99.00" width="11" height="11" rx="2" ry="2" fill="#161b22"/>
<rect x="90.00" y="15.00" width="11" height="11" rx="2" ry="2" fill="#161b22"/>
<rect x="90.00" y="29.00" width="11" height="11" rx="2" ry="2" fill="#161b22"/>
<rect x="90.00" y="43.00" width="11" height="11" rx="2" ry="2" fill="#161b22"/>
<rect x="90.00" y="57.00" width="11" height="11" rx="2" ry="2" fill="#161b22"/>
<rect x="90.00" y="71.00" width="11" height="11" rx="2" ry="2" fill="#161b22"/>
<rect x="90.00" y="85.00" width="11" height="11" rx="2" ry="2" fill="#161b22"/>
<rect x="90.00" y="99.00" width="11" height="11" rx="2" ry="2" fill="#161b22"/>
<rect x="104.00" y="15.00" width="11" height="11" rx="2" ry="2" fill="#161b22"/>
<rect x="104.00" y="29.00" width="11" height="11" rx="2" ry="2" fill="#161b22"/>
<rect x="104.00" y="43.00" width="11" height="11" rx="2" ry="2" fill="#161b22"/>
<rect x="104.00" y="57.00" width="11" height="11" rx="2" ry="2" fill="#161b22"/>
<rect x="104.00" y="71.00" width="11" height="11" rx="2" ry="2" fill="#161b22"/>
<rect x="104.00" y="85.00" width="11" height="11" rx="2" ry="2" fill="#161b22"/>
<rect x="104.00" y="99.00" width="11" height="11" rx="2" ry="2" fill="#161b22"/>
<rect x="118.00" y="15.00" width="11" height="11" rx="2" ry="2" fill="#161b22"/>
<rect x="118.00" y="29.00" width="11" height="11" rx="2" ry="2" fill="#161b22"/>
<rect x="118.00" y="43.00" width="11" height="11" rx="2" ry="2" fill="#4a1534"/>
<rect x="118.00" y="57.00" width="11" height="11" rx="2" ry="2" fill="#161b22"/>
<rect x="118.00" y="71.00" width="11" height="11" rx="2" ry="2" fill="#161b22"/>
<rect x="118.00" y="85.00" width="11" height="11" rx="2" ry="2" fill="#161b22"/>
<rect x="118.00" y="99.00" width="11" height="11" rx="2" ry="2" fill="#161b22"/>
<rect x="132.00" y="15.00" width="11" height="11" rx="2" ry="2" fill="#161b22"/>
<rect x="132.00" y="29.00" width="11" height="11" rx="2" ry="2" fill="#161b22"/>
<rect x="132.00" y="43.00" width="11" height="11" rx="2" ry="2" fill="#161b22"/>
<rect x="132.00" y="57.00" width="11" height="11" rx="2" ry="2" fill="#161b22"/>
<rect x="132.00" y="71.00" width="11" height="11" rx="2" ry="2" fill="#161b22"/>
<rect x="132.00" y="85.00" width="11" height="11" rx="2" ry="2" fill="#161b22"/>
<rect x="132.00" y="99.00" width="11" height="11" rx="2" ry="2" fill="#161b22"/>
<rect x="146.00" y="15.00" width="11" height="11" rx="2" ry="2" fill="#161b22"/>
<rect x="146.00" y="29.00" width="11" height="11" rx="2" ry="2" fill="#161b22"/>
<rect x="146.00" y="43.00" width="11" height="11" rx="2" ry="2" fill="#161b22"/>
<rect x="146.00" y="57.00" width="11" height="11" rx="2" ry="2" fill="#161b22"/>
<rect x="146.00" y="71.00" width="11" height="11" rx="2" ry="2" fill="#161b22"/>
<rect x="146.00" y="85.00" width="11" height="11" rx="2" ry="2" fill="#161b22"/>
<rect x="146.00" y="99.00" width="11" height="11" rx="2" ry="2" fill="#161b22"/>
<rect x="160.00" y="15.00" width="11" height="11" rx="2" ry="2" fill="#161b22"/>
<rect x="160.00" y="29.00" width="11" height="11" rx="2" ry="2" fill="#161b22"/>
<rect x="160.00" y="43.00" width="11" height="11" rx="2" ry="2" fill="#161b22"/>
<rect x="160.00" y="57.00" width="11" height="11" rx="2" ry="2" fill="#161b22"/>
<rect x="160.00" y="71.00" width="11" height="11" rx="2" ry="2" fill="#161b22"/>
<rect x="160.00" y="85.00" width="11" height="11" rx="2" ry="2" fill="#161b22"/>
<rect x="160.00" y="99.00" width="11" height="11" rx="2" ry="2" fill="#161b22"/>
<rect x="174.00" y="15.00" width="11" height="11" rx="2" ry="2" fill="#161b22"/>
<rect x="174.00" y="29.00" width="11" height="11" rx="2" ry="2" fill="#161b22"/>
<rect x="174.00" y="43.00" width="11" height="11" rx="2" ry="2" fill="#161b22"/>
<rect x="174.00" y="57.00" width="11" height="11" rx="2" ry="2" fill="#161b22"/>
<rect x="174.00" y="71.00" width="11" height="11" rx="2" ry="2" fill="#161b22"/>
<rect x="174.00" y="85.00" width="11" height="11" rx="2" ry="2" fill="#161b22"/>
<rect x="174.00" y="99.00" width="11" height="11" rx="2" ry="2" fill="#161b22"/>
<rect x="188.00" y="15.00" width="11" height="11" rx="2" ry="2" fill="#161b22"/>
<rect x="188.00" y="29.00" width="11" height="11" rx="2" ry="2" fill="#161b22"/>
<rect x="188.00" y="43.00" width="11" height="11" rx="2" ry="2" fill="#161b22"/>
<rect x="188.00" y="57.00" width="11" height="11" rx="2" ry="2" fill="#161b22"/>
<rect x="188.00" y="71.00" width="11" height="11" rx="2" ry="2" fill="#161b22"/>
<rect x="188.00" y="85.00" width="11" height="11" rx="2" ry="2" fill="#161b22"/>
<rect x="188.00" y="99.00" width="11" height="11" rx="2" ry="2" fill="#161b22"/>
<rect x="202.00" y="15.00" width="11" height="11" rx="2" ry="2" fill="#161b22"/>
<rect x="202.00" y="29.00" width="11" height="11" rx="2" ry="2" fill="#161b22"/>
<rect x="202.00" y="43.00" width="11" height="11" rx="2" ry="2" fill="#ff69b4"><animate attributeName="fill" dur="20s" repeatCount="indefinite" keyTimes="0;0.1909;0.1969;0.8091;0.8151;1" values="#ff69b4;#ff69b4;#ff69b4;#ff69b4;#ff69b4;#ff69b4"/></rect>
<rect x="202.00" y="57.00" width="11" height="11" rx="2" ry="2" fill="#ff69b4"><animate attributeName="fill" dur="20s" repeatCount="indefinite" keyTimes="0;0.1909;0.1969;0.8091;0.8151;1" values="#ff69b4;#ff69b4;#ff69b4;#ff69b4;#ff69b4;#ff69b4"/></rect>
<rect x="202.00" y="71.00" width="11" height="11" rx="2" ry="2" fill="#912361"/>
<rect x="202.00" y="85.00" width="11" height="11" rx="2" ry="2" fill="#912361"/>
<rect x="202.00" y="99.00" width="11" height="11" rx="2" ry="2" fill="#161b22"/>
<rect x="216.00" y="15.00" width="11" height="11" rx="2" ry="2" fill="#161b22"/>
<rect x="216.00" y="29.00" width="11" height="11" rx="2" ry="2" fill="#161b22"/>
<rect x="216.00" y="43.00" width="11" height="11" rx="2" ry="2" fill="#161b22"/>
<rect x="216.00" y="57.00" width="11" height="11" rx="2" ry="2" fill="#161b22"/>
<rect x="216.00" y="71.00" width="11" height="11" rx="2" ry="2" fill="#161b22"/>
<rect x="216.00" y="85.00" width="11" height="11" rx="2" ry="2" fill="#4a1534"/>
<rect x="216.00" y="99.00" width="11" height="11" rx="2" ry="2" fill="#161b22"/>
<rect x="230.00" y="15.00" width="11" height="11" rx="2" ry="2" fill="#161b22"/>
<rect x="230.00" y="29.00" width="11" height="11" rx="2" ry="2" fill="#161b22"/>
<rect x="230.00" y="43.00" width="11" height="11" rx="2" ry="2" fill="#161b22"/>
<rect x="230.00" y="57.00" width="11" height="11" rx="2" ry="2" fill="#161b22"/>
<rect x="230.00" y="71.00" width="11" height="11" rx="2" ry="2" fill="#161b22"/>
<rect x="230.00" y="85.00" width="11" height="11" rx="2" ry="2" fill="#161b22"/>
<rect x="230.00" y="99.00" width="11" height="11" rx="2" ry="2" fill="#161b22"/>
<rect x="244.00" y="15.00" width="11" height="11" rx="2" ry="2" fill="#161b22"/>
<rect x="244.00" y="29.00" width="11" height="11" rx="2" ry="2" fill="#161b22"/>
<rect x="244.00" y="43.00" width="11" height="11" rx="2" ry="2" fill="#161b22"/>
<rect x="244.00" y="57.00" width="11" height="11" rx="2" ry="2" fill="#161b22"/>
<rect x="244.00" y="71.00" width="11" height="11" rx="2" ry="2" fill="#161b22"/>
<rect x="244.00" y="85.00" width="11" height="11" rx="2" ry="2" fill="#912361"/>
<rect x="244.00" y="99.00" width="11" height="11" rx="2" ry="2" fill="#161b22"/>
<rect x="258.00" y="15.00" width="11" height="11" rx="2" ry="2" fill="#161b22"/>
<rect x="258.00" y="29.00" width="11" height="11" rx="2" ry="2" fill="#161b22"/>
<rect x="258.00" y="43.00" width="11" height="11" rx="2" ry="2" fill="#4a1534"/>
<rect x="258.00" y="57.00" width="11" height="11" rx="2" ry="2" fill="#ff69b4"/>
<rect x="258.00" y="71.00" width="11" height="11" rx="2" ry="2" fill="#4a1534"/>
<rect x="258.00" y="85.00" width="11" height="11" rx="2" ry="2" fill="#161b22"/>
<rect x="258.00" y="99.00" width="11" height="11" rx="2" ry="2" fill="#161b22"/>
<rect x="272.00" y="15.00" width="11" height="11" rx="2" ry="2" fill="#161b22"/>
<rect x="272.00" y="29.00" width="11" height="11" rx="2" ry="2" fill="#161b22"/>
<rect x="272.00" y="43.00" width="11" height="11" rx="2" ry="2" fill="#161b22"/>
<rect x="272.00" y="57.00" width="11" height="11" rx="2" ry="2" fill="#161b22"/>
<rect x="272.00" y="71.00" width="11" height="11" rx="2" ry="2" fill="#161b22"/>
<rect x="272.00" y="85.00" width="11" height="11" rx="2" ry="2" fill="#161b22"/>
<rect x="272.00" y="99.00" width="11" height="11" rx="2" ry="2" fill="#161b22"/>
<rect x="286.00" y="15.00" width="11" height="11" rx="2" ry="2" fill="#161b22"/>
<rect x="286.00" y="29.00" width="11" height="11" rx="2" ry="2" fill="#161b22"/>
<rect x="286.00" y="43.00" width="11" height="11" rx="2" ry="2" fill="#161b22"/>
<rect x="286.00" y="57.00" width="11" height="11" rx="2" ry="2" fill="#161b22"/>
<rect x="286.00" y="71.00" width="11" height="11" rx="2" ry="2" fill="#161b22"/>
<rect x="286.00" y="85.00" width="11" height="11" rx="2" ry="2" fill="#161b22"/>
<rect x="286.00" y="99.00" width="11" height="11" rx="2" ry="2" fill="#161b22"/>
<rect x="300.00" y="15.00" width="11" height="11" rx="2" ry="2" fill="#161b22"/>
<rect x="300.00" y="29.00" width="11" height="11" rx="2" ry="2" fill="#161b22"/>
<rect x="300.00" y="43.00" width="11" height="11" rx="2" ry="2" fill="#161b22"/>
<rect x="300.00" y="57.00" width="11" height="11" rx="2" ry="2" fill="#161b22"/>
<rect x="300.00" y="71.00" width="11" height="11" rx="2" ry="2" fill="#161b22"/>
<rect x="300.00" y="85.00" width="11" height="11" rx="2" ry="2" fill="#161b22"/>
<rect x="300.00" y="99.00" width="11" height="11" rx="2" ry="2" fill="#161b22"/>
<rect x="314.00" y="15.00" width="11" height="11" rx="2" ry="2" fill="#161b22"/>
<rect x="314.00" y="29.00" width="11" height="11" rx="2" ry="2" fill="#161b22"/>
<rect x="314.00" y="43.00" width="11" height="11" rx="2" ry="2" fill="#161b22"/>
<rect x="314.00" y="57.00" width="11" height="11" rx="2" ry="2" fill="#161b22"/>
<rect x="314.00" y="71.00" width="11" height="11" rx="2" ry="2" fill="#161b22"/>
<rect x="314.00" y="85.00" width="11" height="11" rx="2" ry="2" fill="#161b22"/>
<rect x="314.00" y="99.00" width="11" height="11" rx="2" ry="2" fill="#161b22"/>
<rect x="328.00" y="15.00" width="11" height="11" rx="2" ry="2" fill="#161b22"/>
<rect x="328.00" y="29.00" width="11" height="11" rx="2" ry="2" fill="#161b22"/>
<rect x="328.00" y="43.00" width="11" height="11" rx="2" ry="2" fill="#161b22"/>
<rect x="328.00" y="57.00" width="11" height="11" rx="2" ry="2" fill="#161b22"/>
<rect x="328.00" y="71.00" width="11" height="11" rx="2" ry="2" fill="#161b22"/>
<rect x="328.00" y="85.00" width="11" height="11" rx="2" ry="2" fill="#161b22"/>
<rect x="328.00" y="99.00" width="11" height="11" rx="2" ry="2" fill="#161b22"/>
<rect x="342.00" y="15.00" width="11" height="11" rx="2" ry="2" fill="#912361"/>
<rect x="342.00" y="29.00" width="11" height="11" rx="2" ry="2" fill="#4a1534"/>
<rect x="342.00" y="43.00" width="11" height="11" rx="2" ry="2" fill="#161b22"/>
<rect x="342.00" y="57.00" width="11" height="11" rx="2" ry="2" fill="#e03e8c"/>
<rect x="342.00" y="71.00" width="11" height="11" rx="2" ry="2" fill="#ff69b4"><animate attributeName="fill" dur="20s" repeatCount="indefinite" keyTimes="0;0.3223;0.3283;0.6777;0.6837;1" values="#ff69b4;#ff69b4;#ff69b4;#ff69b4;#ff69b4;#ff69b4"/></rect>
<rect x="342.00" y="85.00" width="11" height="11" rx="2" ry="2" fill="#4a1534"/>
<rect x="342.00" y="99.00" width="11" height="11" rx="2" ry="2" fill="#ff69b4"/>
<rect x="356.00" y="15.00" width="11" height="11" rx="2" ry="2" fill="#ff69b4"/>
<rect x="356.00" y="29.00" width="11" height="11" rx="2" ry="2" fill="#912361"/>
<rect x="356.00" y="43.00" width="11" height="11" rx="2" ry="2" fill="#ff69b4"><animate attributeName="fill" dur="20s" repeatCount="indefinite" keyTimes="0;0.3354;0.3414;0.6646;0.6706;1" values="#ff69b4;#ff69b4;#ff69b4;#ff69b4;#ff69b4;#ff69b4"/></rect>
<rect x="356.00" y="57.00" width="11" height="11" rx="2" ry="2" fill="#e03e8c"/>
<rect x="356.00" y="71.00" width="11" height="11" rx="2" ry="2" fill="#912361"/>
<rect x="356.00" y="85.00" width="11" height="11" rx="2" ry="2" fill="#e03e8c"/>
<rect x="356.00" y="99.00" width="11" height="11" rx="2" ry="2" fill="#912361"/>
<rect x="370.00" y="15.00" width="11" height="11" rx="2" ry="2" fill="#912361"/>
<rect x="370.00" y="29.00" width="11" height="11" rx="2" ry="2" fill="#ff69b4"><animate attributeName="fill" dur="20s" repeatCount="indefinite" keyTimes="0;0.3486;0.3546;0.6514;0.6574;1" values="#ff69b4;#ff69b4;#ff69b4;#ff69b4;#ff69b4;#ff69b4"/></rect>
<rect x="370.00" y="43.00" width="11" height="11" rx="2" ry="2" fill="#912361"/>
<rect x="370.00" y="57.00" width="11" height="11" rx="2" ry="2" fill="#4a1534"/>
<rect x="370.00" y="71.00" width="11" height="11" rx="2" ry="2" fill="#912361"/>
<rect x="370.00" y="85.00" width="11" height="11" rx="2" ry="2" fill="#912361"/>
<rect x="370.00" y="99.00" width="11" height="11" rx="2" ry="2" fill="#912361"/>
<rect x="384.00" y="15.00" width="11" height="11" rx="2" ry="2" fill="#912361"/>
<rect x="384.00" y="29.00" width="11" height="11" rx="2" ry="2" fill="#ff69b4"/>
<rect x="384.00" y="43.00" width="11" height="11" rx="2" ry="2" fill="#912361"/>
<rect x="384.00" y="57.00" width="11" height="11" rx="2" ry="2" fill="#4a1534"/>
<rect x="384.00" y="71.00" width="11" height="11" rx="2" ry="2" fill="#912361"/>
<rect x="384.00" y="85.00" width="11" height="11" rx="2" ry="2" fill="#ff69b4"><animate attributeName="fill" dur="20s" repeatCount="indefinite" keyTimes="0;0.3617;0.3677;0.6383;0.6443;1" values="#ff69b4;#ff69b4;#ff69b4;#ff69b4;#ff69b4;#ff69b4"/></rect>
<rect x="384.00" y="99.00" width="11" height="11" rx="2" ry="2" fill="#e03e8c"/>
<rect x="398.00" y="15.00" width="11" height="11" rx="2" ry="2" fill="#ff69b4"><animate attributeName="fill" dur="20s" repeatCount="indefinite" keyTimes="0;0.3749;0.3809;0.6251;0.6311;1" values="#ff69b4;#ff69b4;#ff69b4;#ff69b4;#ff69b4;#ff69b4"/></rect>
<rect x="398.00" y="29.00" width="11" height="11" rx="2" ry="2" fill="#ff69b4"><animate attributeName="fill" dur="20s" repeatCount="indefinite" keyTimes="0;0.3749;0.3809;0.6251;0.6311;1" values="#ff69b4;#ff69b4;#ff69b4;#ff69b4;#ff69b4;#ff69b4"/></rect>
<rect x="398.00" y="43.00" width="11" height="11" rx="2" ry="2" fill="#ff69b4"><animate attributeName="fill" dur="20s" repeatCount="indefinite" keyTimes="0;0.3749;0.3809;0.6251;0.6311;1" values="#ff69b4;#ff69b4;#ff69b4;#ff69b4;#ff69b4;#ff69b4"/></rect>
<rect x="398.00" y="57.00" width="11" height="11" rx="2" ry="2" fill="#4a1534"/>
<rect x="398.00" y="71.00" width="11" height="11" rx="2" ry="2" fill="#ff69b4"><animate attributeName="fill" dur="20s" repeatCount="indefinite" keyTimes="0;0.3749;0.3809;0.6251;0.6311;1" values="#ff69b4;#ff69b4;#ff69b4;#ff69b4;#ff69b4;#ff69b4"/></rect>
<rect x="398.00" y="85.00" width="11" height="11" rx="2" ry="2" fill="#e03e8c"/>
<rect x="398.00" y="99.00" width="11" height="11" rx="2" ry="2" fill="#e03e8c"/>
<rect x="412.00" y="15.00" width="11" height="11" rx="2" ry="2" fill="#e03e8c"/>
<rect x="412.00" y="29.00" width="11" height="11" rx="2" ry="2" fill="#4a1534"/>
<rect x="412.00" y="43.00" width="11" height="11" rx="2" ry="2" fill="#161b22"/>
<rect x="412.00" y="57.00" width="11" height="11" rx="2" ry="2" fill="#4a1534"/>
<rect x="412.00" y="71.00" width="11" height="11" rx="2" ry="2" fill="#ff69b4"><animate attributeName="fill" dur="20s" repeatCount="indefinite" keyTimes="0;0.388;0.394;0.612;0.618;1" values="#ff69b4;#ff69b4;#ff69b4;#ff69b4;#ff69b4;#ff69b4"/></rect>
<rect x="412.00" y="85.00" width="11" height="11" rx="2" ry="2" fill="#4a1534"/>
<rect x="412.00" y="99.00" width="11" height="11" rx="2" ry="2" fill="#e03e8c"/>
<rect x="426.00" y="15.00" width="11" height="11" rx="2" ry="2" fill="#ff69b4"/>
<rect x="426.00" y="29.00" width="11" height="11" rx="2" ry="2" fill="#912361"/>
<rect x="426.00" y="43.00" width="11" height="11" rx="2" ry="2" fill="#e03e8c"/>
<rect x="426.00" y="57.00" width="11" height="11" rx="2" ry="2" fill="#ff69b4"/>
<rect x="426.00" y="71.00" width="11" height="11" rx="2" ry="2" fill="#912361"/>
<rect x="426.00" y="85.00" width="11" height="11" rx="2" ry="2" fill="#ff69b4"><animate attributeName="fill" dur="20s" repeatCount="indefinite" keyTimes="0;0.4011;0.4071;0.5989;0.6049;1" values="#ff69b4;#ff69b4;#ff69b4;#ff69b4;#ff69b4;#ff69b4"/></rect>
<rect x="426.00" y="99.00" width="11" height="11" rx="2" ry="2" fill="#ff69b4"/>
<rect x="440.00" y="15.00" width="11" height="11" rx="2" ry="2" fill="#912361"/>
<rect x="440.00" y="29.00" width="11" height="11" rx="2" ry="2" fill="#4a1534"/>
<rect x="440.00" y="43.00" width="11" height="11" rx="2" ry="2" fill="#912361"/>
<rect x="440.00" y="57.00" width="11" height="11" rx="2" ry="2" fill="#e03e8c"/>
<rect x="440.00" y="71.00" width="11" height="11" rx="2" ry="2" fill="#ff69b4"/>
<rect x="440.00" y="85.00" width="11" height="11" rx="2" ry="2" fill="#912361"/>
<rect x="440.00" y="99.00" width="11" height="11" rx="2" ry="2" fill="#4a1534"/>
<rect x="454.00" y="15.00" width="11" height="11" rx="2" ry="2" fill="#4a1534"/>
<rect x="454.00" y="29.00" width="11" height="11" rx="2" ry="2" fill="#4a1534"/>
<rect x="454.00" y="43.00" width="11" height="11" rx="2" ry="2" fill="#4a1534"/>
<rect x="454.00" y="57.00" width="11" height="11" rx="2" ry="2" fill="#4a1534"/>
<rect x="454.00" y="71.00" width="11" height="11" rx="2" ry="2" fill="#4a1534"/>
<rect x="454.00" y="85.00" width="11" height="11" rx="2" ry="2" fill="#912361"/>
<rect x="454.00" y="99.00" width="11" height="11" rx="2" ry="2" fill="#4a1534"/>
<rect x="468.00" y="15.00" width="11" height="11" rx="2" ry="2" fill="#4a1534"/>
<rect x="468.00" y="29.00" width="11" height="11" rx="2" ry="2" fill="#4a1534"/>
<rect x="468.00" y="43.00" width="11" height="11" rx="2" ry="2" fill="#4a1534"/>
<rect x="468.00" y="57.00" width="11" height="11" rx="2" ry="2" fill="#912361"/>
<rect x="468.00" y="71.00" width="11" height="11" rx="2" ry="2" fill="#4a1534"/>
<rect x="468.00" y="85.00" width="11" height="11" rx="2" ry="2" fill="#4a1534"/>
<rect x="468.00" y="99.00" width="11" height="11" rx="2" ry="2" fill="#4a1534"/>
<rect x="482.00" y="15.00" width="11" height="11" rx="2" ry="2" fill="#4a1534"/>
<rect x="482.00" y="29.00" width="11" height="11" rx="2" ry="2" fill="#4a1534"/>
<rect x="482.00" y="43.00" width="11" height="11" rx="2" ry="2" fill="#4a1534"/>
<rect x="482.00" y="57.00" width="11" height="11" rx="2" ry="2" fill="#4a1534"/>
<rect x="482.00" y="71.00" width="11" height="11" rx="2" ry="2" fill="#4a1534"/>
<rect x="482.00" y="85.00" width="11" height="11" rx="2" ry="2" fill="#4a1534"/>
<rect x="482.00" y="99.00" width="11" height="11" rx="2" ry="2" fill="#4a1534"/>
<rect x="496.00" y="15.00" width="11" height="11" rx="2" ry="2" fill="#4a1534"/>
<rect x="496.00" y="29.00" width="11" height="11" rx="2" ry="2" fill="#4a1534"/>
<rect x="496.00" y="43.00" width="11" height="11" rx="2" ry="2" fill="#4a1534"/>
<rect x="496.00" y="57.00" width="11" height="11" rx="2" ry="2" fill="#4a1534"/>
<rect x="496.00" y="71.00" width="11" height="11" rx="2" ry="2" fill="#4a1534"/>
<rect x="496.00" y="85.00" width="11" height="11" rx="2" ry="2" fill="#4a1534"/>
<rect x="496.00" y="99.00" width="11" height="11" rx="2" ry="2" fill="#4a1534"/>
<rect x="510.00" y="15.00" width="11" height="11" rx="2" ry="2" fill="#4a1534"/>
<rect x="510.00" y="29.00" width="11" height="11" rx="2" ry="2" fill="#4a1534"/>
</g>
<g id="bullets">
<circle cx="207.5" cy="128" r="2.4" fill="#ff99d8"><animate attributeName="cy" dur="20s" repeatCount="indefinite" keyTimes="0;0.1729;0.1909;1" values="128;128;48.5;48.5"/><animate attributeName="opacity" dur="20s" repeatCount="indefinite" keyTimes="0;0.1729;0.1909;0.1969;1" values="0;1;1;0;0"/></circle>
<circle cx="207.5" cy="128" r="2.4" fill="#ff99d8"><animate attributeName="cy" dur="20s" repeatCount="indefinite" keyTimes="0;0.1729;0.1909;1" values="128;128;62.5;62.5"/><animate attributeName="opacity" dur="20s" repeatCount="indefinite" keyTimes="0;0.1729;0.1909;0.1969;1" values="0;1;1;0;0"/></circle>
<circle cx="347.5" cy="128" r="2.4" fill="#ff99d8"><animate attributeName="cy" dur="20s" repeatCount="indefinite" keyTimes="0;0.3043;0.3223;1" values="128;128;76.5;76.5"/><animate attributeName="opacity" dur="20s" repeatCount="indefinite" keyTimes="0;0.3043;0.3223;0.3283;1" values="0;1;1;0;0"/></circle>
<circle cx="361.5" cy="128" r="2.4" fill="#ff99d8"><animate attributeName="cy" dur="20s" repeatCount="indefinite" keyTimes="0;0.3174;0.3354;1" values="128;128;48.5;48.5"/><animate attributeName="opacity" dur="20s" repeatCount="indefinite" keyTimes="0;0.3174;0.3354;0.3414;1" values="0;1;1;0;0"/></circle>
<circle cx="375.5" cy="128" r="2.4" fill="#ff99d8"><animate attributeName="cy" dur="20s" repeatCount="indefinite" keyTimes="0;0.3306;0.3486;1" values="128;128;34.5;34.5"/><animate attributeName="opacity" dur="20s" repeatCount="indefinite" keyTimes="0;0.3306;0.3486;0.3546;1" values="0;1;1;0;0"/></circle>
<circle cx="389.5" cy="128" r="2.4" fill="#ff99d8"><animate attributeName="cy" dur="20s" repeatCount="indefinite" keyTimes="0;0.3437;0.3617;1" values="128;128;90.5;90.5"/><animate attributeName="opacity" dur="20s" repeatCount="indefinite" keyTimes="0;0.3437;0.3617;0.3677;1" values="0;1;1;0;0"/></circle>
<circle cx="403.5" cy="128" r="2.4" fill="#ff99d8"><animate attributeName="cy" dur="20s" repeatCount="indefinite" keyTimes="0;0.3569;0.3749;1" values="128;128;20.5;20.5"/><animate attributeName="opacity" dur="20s" repeatCount="indefinite" keyTimes="0;0.3569;0.3749;0.3809;1" values="0;1;1;0;0"/></circle>
<circle cx="403.5" cy="128" r="2.4" fill="#ff99d8"><animate attributeName="cy" dur="20s" repeatCount="indefinite" keyTimes="0;0.3569;0.3749;1" values="128;128;34.5;34.5"/><animate attributeName="opacity" dur="20s" repeatCount="indefinite" keyTimes="0;0.3569;0.3749;0.3809;1" values="0;1;1;0;0"/></circle>
<circle cx="403.5" cy="128" r="2.4" fill="#ff99d8"><animate attributeName="cy" dur="20s" repeatCount="indefinite" keyTimes="0;0.3569;0.3749;1" values="128;128;48.5;48.5"/><animate attributeName="opacity" dur="20s" repeatCount="indefinite" keyTimes="0;0.3569;0.3749;0.3809;1" values="0;1;1;0;0"/></circle>
<circle cx="403.5" cy="128" r="2.4" fill="#ff99d8"><animate attributeName="cy" dur="20s" repeatCount="indefinite" keyTimes="0;0.3569;0.3749;1" values="128;128;76.5;76.5"/><animate attributeName="opacity" dur="20s" repeatCount="indefinite" keyTimes="0;0.3569;0.3749;0.3809;1" values="0;1;1;0;0"/></circle>
<circle cx="417.5" cy="128" r="2.4" fill="#ff99d8"><animate attributeName="cy" dur="20s" repeatCount="indefinite" keyTimes="0;0.37;0.388;1" values="128;128;76.5;76.5"/><animate attributeName="opacity" dur="20s" repeatCount="indefinite" keyTimes="0;0.37;0.388;0.394;1" values="0;1;1;0;0"/></circle>
<circle cx="431.5" cy="128" r="2.4" fill="#ff99d8"><animate attributeName="cy" dur="20s" repeatCount="indefinite" keyTimes="0;0.3831;0.4011;1" values="128;128;90.5;90.5"/><animate attributeName="opacity" dur="20s" repeatCount="indefinite" keyTimes="0;0.3831;0.4011;0.4071;1" values="0;1;1;0;0"/></circle>
<circle cx="431.5" cy="128" r="2.4" fill="#ff99d8"><animate attributeName="cy" dur="20s" repeatCount="indefinite" keyTimes="0;0.5809;0.5989;1" values="128;128;90.5;90.5"/><animate attributeName="opacity" dur="20s" repeatCount="indefinite" keyTimes="0;0.5809;0.5989;0.6049;1" values="0;1;1;0;0"/></circle>
<circle cx="417.5" cy="128" r="2.4" fill="#ff99d8"><animate attributeName="cy" dur="20s" repeatCount="indefinite" keyTimes="0;0.594;0.612;1" values="128;128;76.5;76.5"/><animate attributeName="opacity" dur="20s" repeatCount="indefinite" keyTimes="0;0.594;0.612;0.618;1" values="0;1;1;0;0"/></circle>
<circle cx="403.5" cy="128" r="2.4" fill="#ff99d8"><animate attributeName="cy" dur="20s" repeatCount="indefinite" keyTimes="0;0.6071;0.6251;1" values="128;128;76.5;76.5"/><animate attributeName="opacity" dur="20s" repeatCount="indefinite" keyTimes="0;0.6071;0.6251;0.6311;1" values="0;1;1;0;0"/></circle>
<circle cx="403.5" cy="128" r="2.4" fill="#ff99d8"><animate attributeName="cy" dur="20s" repeatCount="indefinite" keyTimes="0;0.6071;0.6251;1" values="128;128;48.5;48.5"/><animate attributeName="opacity" dur="20s" repeatCount="indefinite" keyTimes="0;0.6071;0.6251;0.6311;1" values="0;1;1;0;0"/></circle>
<circle cx="403.5" cy="128" r="2.4" fill="#ff99d8"><animate attributeName="cy" dur="20s" repeatCount="indefinite" keyTimes="0;0.6071;0.6251;1" values="128;128;34.5;34.5"/><animate attributeName="opacity" dur="20s" repeatCount="indefinite" keyTimes="0;0.6071;0.6251;0.6311;1" values="0;1;1;0;0"/></circle>
<circle cx="403.5" cy="128" r="2.4" fill="#ff99d8"><animate attributeName="cy" dur="20s" repeatCount="indefinite" keyTimes="0;0.6071;0.6251;1" values="128;128;20.5;20.5"/><animate attributeName="opacity" dur="20s" repeatCount="indefinite" keyTimes="0;0.6071;0.6251;0.6311;1" values="0;1;1;0;0"/></circle>
<circle cx="389.5" cy="128" r="2.4" fill="#ff99d8"><animate attributeName="cy" dur="20s" repeatCount="indefinite" keyTimes="0;0.6203;0.6383;1" values="128;128;90.5;90.5"/><animate attributeName="opacity" dur="20s" repeatCount="indefinite" keyTimes="0;0.6203;0.6383;0.6443;1" values="0;1;1;0;0"/></circle>
<circle cx="375.5" cy="128" r="2.4" fill="#ff99d8"><animate attributeName="cy" dur="20s" repeatCount="indefinite" keyTimes="0;0.6334;0.6514;1" values="128;128;34.5;34.5"/><animate attributeName="opacity" dur="20s" repeatCount="indefinite" keyTimes="0;0.6334;0.6514;0.6574;1" values="0;1;1;0;0"/></circle>
<circle cx="361.5" cy="128" r="2.4" fill="#ff99d8"><animate attributeName="cy" dur="20s" repeatCount="indefinite" keyTimes="0;0.6466;0.6646;1" values="128;128;48.5;48.5"/><animate attributeName="opacity" dur="20s" repeatCount="indefinite" keyTimes="0;0.6466;0.6646;0.6706;1" values="0;1;1;0;0"/></circle>
<circle cx="347.5" cy="128" r="2.4" fill="#ff99d8"><animate attributeName="cy" dur="20s" repeatCount="indefinite" keyTimes="0;0.6597;0.6777;1" values="128;128;76.5;76.5"/><animate attributeName="opacity" dur="20s" repeatCount="indefinite" keyTimes="0;0.6597;0.6777;0.6837;1" values="0;1;1;0;0"/></circle>
<circle cx="207.5" cy="128" r="2.4" fill="#ff99d8"><animate attributeName="cy" dur="20s" repeatCount="indefinite" keyTimes="0;0.7911;0.8091;1" values="128;128;62.5;62.5"/><animate attributeName="opacity" dur="20s" repeatCount="indefinite" keyTimes="0;0.7911;0.8091;0.8151;1" values="0;1;1;0;0"/></circle>
<circle cx="207.5" cy="128" r="2.4" fill="#ff99d8"><animate attributeName="cy" dur="20s" repeatCount="indefinite" keyTimes="0;0.7911;0.8091;1" values="128;128;48.5;48.5"/><animate attributeName="opacity" dur="20s" repeatCount="indefinite" keyTimes="0;0.7911;0.8091;0.8151;1" values="0;1;1;0;0"/></circle>
</g>
<g id="blasts">
<circle cx="207.5" cy="48.5" r="0" fill="none" stroke="#ff69b4" stroke-width="1.6" opacity="0"><animate attributeName="r" dur="20s" repeatCount="indefinite" keyTimes="0;0.1909;0.2089;1" values="0;1;9;9"/><animate attributeName="opacity" dur="20s" repeatCount="indefinite" keyTimes="0;0.1909;0.2089;1" values="0;1;1;0"/></circle>
<circle cx="207.5" cy="62.5" r="0" fill="none" stroke="#ff69b4" stroke-width="1.6" opacity="0"><animate attributeName="r" dur="20s" repeatCount="indefinite" keyTimes="0;0.1909;0.2089;1" values="0;1;9;9"/><animate attributeName="opacity" dur="20s" repeatCount="indefinite" keyTimes="0;0.1909;0.2089;1" values="0;1;1;0"/></circle>
<circle cx="347.5" cy="76.5" r="0" fill="none" stroke="#ff69b4" stroke-width="1.6" opacity="0"><animate attributeName="r" dur="20s" repeatCount="indefinite" keyTimes="0;0.3223;0.3403;1" values="0;1;9;9"/><animate attributeName="opacity" dur="20s" repeatCount="indefinite" keyTimes="0;0.3223;0.3403;1" values="0;1;1;0"/></circle>
<circle cx="361.5" cy="48.5" r="0" fill="none" stroke="#ff69b4" stroke-width="1.6" opacity="0"><animate attributeName="r" dur="20s" repeatCount="indefinite" keyTimes="0;0.3354;0.3534;1" values="0;1;9;9"/><animate attributeName="opacity" dur="20s" repeatCount="indefinite" keyTimes="0;0.3354;0.3534;1" values="0;1;1;0"/></circle>
<circle cx="375.5" cy="34.5" r="0" fill="none" stroke="#ff69b4" stroke-width="1.6" opacity="0"><animate attributeName="r" dur="20s" repeatCount="indefinite" keyTimes="0;0.3486;0.3666;1" values="0;1;9;9"/><animate attributeName="opacity" dur="20s" repeatCount="indefinite" keyTimes="0;0.3486;0.3666;1" values="0;1;1;0"/></circle>
<circle cx="389.5" cy="90.5" r="0" fill="none" stroke="#ff69b4" stroke-width="1.6" opacity="0"><animate attributeName="r" dur="20s" repeatCount="indefinite" keyTimes="0;0.3617;0.3797;1" values="0;1;9;9"/><animate attributeName="opacity" dur="20s" repeatCount="indefinite" keyTimes="0;0.3617;0.3797;1" values="0;1;1;0"/></circle>
<circle cx="403.5" cy="20.5" r="0" fill="none" stroke="#ff69b4" stroke-width="1.6" opacity="0"><animate attributeName="r" dur="20s" repeatCount="indefinite" keyTimes="0;0.3749;0.3929;1" values="0;1;9;9"/><animate attributeName="opacity" dur="20s" repeatCount="indefinite" keyTimes="0;0.3749;0.3929;1" values="0;1;1;0"/></circle>
<circle cx="403.5" cy="34.5" r="0" fill="none" stroke="#ff69b4" stroke-width="1.6" opacity="0"><animate attributeName="r" dur="20s" repeatCount="indefinite" keyTimes="0;0.3749;0.3929;1" values="0;1;9;9"/><animate attributeName="opacity" dur="20s" repeatCount="indefinite" keyTimes="0;0.3749;0.3929;1" values="0;1;1;0"/></circle>
<circle cx="403.5" cy="48.5" r="0" fill="none" stroke="#ff69b4" stroke-width="1.6" opacity="0"><animate attributeName="r" dur="20s" repeatCount="indefinite" keyTimes="0;0.3749;0.3929;1" values="0;1;9;9"/><animate attributeName="opacity" dur="20s" repeatCount="indefinite" keyTimes="0;0.3749;0.3929;1" values="0;1;1;0"/></circle>
<circle cx="403.5" cy="76.5" r="0" fill="none" stroke="#ff69b4" stroke-width="1.6" opacity="0"><animate attributeName="r" dur="20s" repeatCount="indefinite" keyTimes="0;0.3749;0.3929;1" values="0;1;9;9"/><animate attributeName="opacity" dur="20s" repeatCount="indefinite" keyTimes="0;0.3749;0.3929;1" values="0;1;1;0"/></circle>
<circle cx="417.5" cy="76.5" r="0" fill="none" stroke="#ff69b4" stroke-width="1.6" opacity="0"><animate attributeName="r" dur="20s" repeatCount="indefinite" keyTimes="0;0.388;0.406;1" values="0;1;9;9"/><animate attributeName="opacity" dur="20s" repeatCount="indefinite" keyTimes="0;0.388;0.406;1" values="0;1;1;0"/></circle>
<circle cx="431.5" cy="90.5" r="0" fill="none" stroke="#ff69b4" stroke-width="1.6" opacity="0"><animate attributeName="r" dur="20s" repeatCount="indefinite" keyTimes="0;0.4011;0.4191;1" values="0;1;9;9"/><animate attributeName="opacity" dur="20s" repeatCount="indefinite" keyTimes="0;0.4011;0.4191;1" values="0;1;1;0"/></circle>
<circle cx="431.5" cy="90.5" r="0" fill="none" stroke="#ff69b4" stroke-width="1.6" opacity="0"><animate attributeName="r" dur="20s" repeatCount="indefinite" keyTimes="0;0.5989;0.6169;1" values="0;1;9;9"/><animate attributeName="opacity" dur="20s" repeatCount="indefinite" keyTimes="0;0.5989;0.6169;1" values="0;1;1;0"/></circle>
<circle cx="417.5" cy="76.5" r="0" fill="none" stroke="#ff69b4" stroke-width="1.6" opacity="0"><animate attributeName="r" dur="20s" repeatCount="indefinite" keyTimes="0;0.612;0.63;1" values="0;1;9;9"/><animate attributeName="opacity" dur="20s" repeatCount="indefinite" keyTimes="0;0.612;0.63;1" values="0;1;1;0"/></circle>
<circle cx="403.5" cy="76.5" r="0" fill="none" stroke="#ff69b4" stroke-width="1.6" opacity="0"><animate attributeName="r" dur="20s" repeatCount="indefinite" keyTimes="0;0.6251;0.6431;1" values="0;1;9;9"/><animate attributeName="opacity" dur="20s" repeatCount="indefinite" keyTimes="0;0.6251;0.6431;1" values="0;1;1;0"/></circle>
<circle cx="403.5" cy="48.5" r="0" fill="none" stroke="#ff69b4" stroke-width="1.6" opacity="0"><animate attributeName="r" dur="20s" repeatCount="indefinite" keyTimes="0;0.6251;0.6431;1" values="0;1;9;9"/><animate attributeName="opacity" dur="20s" repeatCount="indefinite" keyTimes="0;0.6251;0.6431;1" values="0;1;1;0"/></circle>
<circle cx="403.5" cy="34.5" r="0" fill="none" stroke="#ff69b4" stroke-width="1.6" opacity="0"><animate attributeName="r" dur="20s" repeatCount="indefinite" keyTimes="0;0.6251;0.6431;1" values="0;1;9;9"/><animate attributeName="opacity" dur="20s" repeatCount="indefinite" keyTimes="0;0.6251;0.6431;1" values="0;1;1;0"/></circle>
<circle cx="403.5" cy="20.5" r="0" fill="none" stroke="#ff69b4" stroke-width="1.6" opacity="0"><animate attributeName="r" dur="20s" repeatCount="indefinite" keyTimes="0;0.6251;0.6431;1" values="0;1;9;9"/><animate attributeName="opacity" dur="20s" repeatCount="indefinite" keyTimes="0;0.6251;0.6431;1" values="0;1;1;0"/></circle>
<circle cx="389.5" cy="90.5" r="0" fill="none" stroke="#ff69b4" stroke-width="1.6" opacity="0"><animate attributeName="r" dur="20s" repeatCount="indefinite" keyTimes="0;0.6383;0.6563;1" values="0;1;9;9"/><animate attributeName="opacity" dur="20s" repeatCount="indefinite" keyTimes="0;0.6383;0.6563;1" values="0;1;1;0"/></circle>
<circle cx="375.5" cy="34.5" r="0" fill="none" stroke="#ff69b4" stroke-width="1.6" opacity="0"><animate attributeName="r" dur="20s" repeatCount="indefinite" keyTimes="0;0.6514;0.6694;1" values="0;1;9;9"/><animate attributeName="opacity" dur="20s" repeatCount="indefinite" keyTimes="0;0.6514;0.6694;1" values="0;1;1;0"/></circle>
<circle cx="361.5" cy="48.5" r="0" fill="none" stroke="#ff69b4" stroke-width="1.6" opacity="0"><animate attributeName="r" dur="20s" repeatCount="indefinite" keyTimes="0;0.6646;0.6826;1" values="0;1;9;9"/><animate attributeName="opacity" dur="20s" repeatCount="indefinite" keyTimes="0;0.6646;0.6826;1" values="0;1;1;0"/></circle>
<circle cx="347.5" cy="76.5" r="0" fill="none" stroke="#ff69b4" stroke-width="1.6" opacity="0"><animate attributeName="r" dur="20s" repeatCount="indefinite" keyTimes="0;0.6777;0.6957;1" values="0;1;9;9"/><animate attributeName="opacity" dur="20s" repeatCount="indefinite" keyTimes="0;0.6777;0.6957;1" values="0;1;1;0"/></circle>
<circle cx="207.5" cy="62.5" r="0" fill="none" stroke="#ff69b4" stroke-width="1.6" opacity="0"><animate attributeName="r" dur="20s" repeatCount="indefinite" keyTimes="0;0.8091;0.8271;1" values="0;1;9;9"/><animate attributeName="opacity" dur="20s" repeatCount="indefinite" keyTimes="0;0.8091;0.8271;1" values="0;1;1;0"/></circle>
<circle cx="207.5" cy="48.5" r="0" fill="none" stroke="#ff69b4" stroke-width="1.6" opacity="0"><animate attributeName="r" dur="20s" repeatCount="indefinite" keyTimes="0;0.8091;0.8271;1" values="0;1;9;9"/><animate attributeName="opacity" dur="20s" repeatCount="indefinite" keyTimes="0;0.8091;0.8271;1" values="0;1;1;0"/></circle>
</g>
<g id="jet">
  <g transform="translate(0,0)">
    <polygon points="0,-16 8,6 4,3 -4,3 -8,6" fill="#ff69b4" stroke="#c62871" stroke-width="1"/>
    <polygon points="-8,6 -14,12 -4,7" fill="#e03e8c"/>
    <polygon points="8,6 14,12 4,7" fill="#e03e8c"/>
    <circle cx="0" cy="-6" r="2.2" fill="#ffebf5"/>
    <polygon points="-3,7 3,7 0,15" fill="#ff1493">
      <animate attributeName="opacity" values="0.5;1;0.6;1" dur="0.18s" repeatCount="indefinite"/>
    </polygon>
  </g>
  <animateTransform attributeName="transform" attributeType="XML" type="translate"
    dur="20s" repeatCount="indefinite"
    keyTimes="0;0.5;1"
    values="35.00,140.00;520.00,140.00;35.00,140.00"/>
</g>
</svg>