<svg viewBox="0 0 499 170" xmlns="http://www.w3.org/2000/svg">
<rect x="0" y="0" width="499" height="170" fill="#ffffff"/>
<circle cx="8" cy="20" r="1.1" fill="#d0d7de"><animate attributeName="opacity" values="0.2;1;0.2" dur="1.2s" repeatCount="indefinite"/></circle>
<circle cx="8" cy="60" r="1.1" fill="#d0d7de"><animate attributeName="opacity" values="0.2;1;0.2" dur="1.6s" repeatCount="indefinite"/></circle>
<circle cx="8" cy="100" r="1.1" fill="#d0d7de"><animate attributeName="opacity" values="0.2;1;0.2" dur="2s" repeatCount="indefinite"/></circle>
<circle cx="489" cy="25" r="1.1" fill="#d0d7de"><animate attributeName="opacity" values="0.2;1;0.2" dur="1.2s" repeatCount="indefinite"/></circle>
<circle cx="489" cy="70" r="1.1" fill="#d0d7de"><animate attributeName="opacity" values="0.2;1;0.2" dur="1.6s" repeatCount="indefinite"/></circle>
<circle cx="489" cy="110" r="1.1" fill="#d0d7de"><animate attributeName="opacity" values="0.2;1;0.2" dur="2s" repeatCount="indefinite"/></circle>
<circle cx="30" cy="164" r="1.1" fill="#d0d7de"><animate attributeName="opacity" values="0.2;1;0.2" dur="1.2s" repeatCount="indefinite"/></circle>
<circle cx="469" cy="164" r="1.1" fill="#d0d7de"><animate attributeName="opacity" values="0.2;1;0.2" dur="1.6s" repeatCount="indefinite"/></circle>
<g id="grid">
<rect x="20.00" y="15.00" width="11" height="11" rx="2" ry="2" fill="#ffc2e2"/>
<rect x="20.00" y="29.00" width="11" height="11" rx="2" ry="2" fill="#f74799"/>
<rect x="20.00" y="43.00" width="11" height="11" rx="2" ry="2" fill="#ebedf0"/>
<rect x="20.00" y="57.00" width="11" height="11" rx="2" ry="2" fill="#ebedf0"/>
<rect x="20.00" y="71.00" width="11" height="11" rx="2" ry="2" fill="#ebedf0"/>
<rect x="20.00" y="85.00" width="11" height="11" rx="2" ry="2" fill="#ebedf0"/>
<rect x="20.00" y="99.00" width="11" height="11" rx="2" ry="2" fill="#ebedf0"/>
<rect x="34.00" y="15.00" width="11" height="11" rx="2" ry="2" fill="#ebedf0"/>
<rect x="34.00" y="29.00" width="11" height="11" rx="2" ry="2" fill="#ebedf0"/>
<rect x="34.00" y="43.00" width="11" height="11" rx="2" ry="2" fill="#ebedf0"/>
<rect x="34.00" y="57.00" width="11" height="11" rx="2" ry="2" fill="#ebedf0"/>
<rect x="34.00" y="71.00" width="11" height="11" rx="2" ry="2" fill="#ebedf0"/>
<rect x="34.00" y="85.00" width="11" height="11" rx="2" ry="2" fill="#ebedf0"/>
<rect x="34.00" y="99.00" width="11" height="11" rx="2" ry="2" fill="#ebedf0"/>
<rect x="48.00" y="15.00" width="11" height="11" rx="2" ry="2" fill="#ebedf0"/>
<rect x="48.00" y="29.00" width="11" height="11" rx="2" ry="2" fill="#ebedf0"/>
<rect x="48.00" y="43.00" width="11" height="11" rx="2" ry="2" fill="#ebedf0"/>
<rect x="48.00" y="57.00" width="11" height="11" rx="2" ry="2" fill="#f74799"/>
<rect x="48.00" y="71.00" width="11" height="11" rx="2" ry="2" fill="#ebedf0"/>
<rect x="48.00" y="85.00" width="11" height="11" rx="2" ry="2" fill="#ebedf0"/>
<rect x="48.00" y="99.00" width="11" height="11" rx="2" ry="2" fill="#ebedf0"/>
<rect x="62.00" y="15.00" width="11" height="11" rx="2" ry="2" fill="#ebedf0"/>
<rect x="62.00" y="29.00" width="11" height="11" rx="2" ry="2" fill="#ebedf0"/>
<rect x="62.00" y="43.00" width="11" height="11" rx="2" ry="2" fill="#ebedf0"/>
<rect x="62.00" y="57.00" width="11" height="11" rx="2" ry="2" fill="#ebedf0"/>
<rect x="62.00" y="71.00" width="11" height="11" rx="2" ry="2" fill="#ebedf0"/>
<rect x="62.00" y="85.00" width="11" height="11" rx="2" ry="2" fill="#ebedf0"/>
<rect x="62.00" y="99.00" width="11" height="11" rx="2" ry="2" fill="#ebedf0"/>
<rect x="76.00" y="15.00" width="11" height="11" rx="2" ry="2" fill="#f74799"/>
<rect x="76.00" y="29.00" width="11" height="11" rx="2" ry="2" fill="#ebedf0"/>
<rect x="76.00" y="43.00" width="11" height="11" rx="2" ry="2" fill="#ebedf0"/>
<rect x="76.00" y="57.00" width="11" height="11" rx="2" ry="2" fill="#ffc2e2"/>
<rect x="76.00" y="71.00" width="11" height="11" rx="2" ry="2" fill="#ebedf0"/>
<rect x="76.00" y="85.00" width="11" height="11" rx="2" ry="2" fill="#ebedf0"/>
<rect x="76.00" y="99.00" width="11" height="11" rx="2" ry="2" fill="#ebedf0"/>
<rect x="90.00" y="15.00" width="11" height="11" rx="2" ry="2" fill="#ebedf0"/>
<rect x="90.00" y="29.00" width="11" height="11" rx="2" ry="2" fill="#ebedf0"/>
<rect x="90.00" y="43.00" width="11" height="11" rx="2" ry="2" fill="#ebedf0"/>
<rect x="90.00" y="57.00" width="11" height="11" rx="2" ry="2" fill="#ebedf0"/>
<rect x="90.00" y="71.00" width="11" height="11" rx="2" ry="2" fill="#ebedf0"/>
<rect x="90.00" y="85.00" width="11" height="11" rx="2" ry="2" fill="#ebedf0"/>
<rect x="90.00" y="99.00" width="11" height="11" rx="2" ry="2" fill="#ebedf0"/>
<rect x="104.00" y="15.00" width="11" height="11" rx="2" ry="2" fill="#ebedf0"/>
<rect x="104.00" y="29.00" width="11" height="11" rx="2" ry="2" fill="#ebedf0"/>
<rect x="104.00" y="43.00" width="11" height="11" rx="2" ry="2" fill="#ebedf0"/>
<rect x="104.00" y="57.00" width="11" height="11" rx="2" ry="2" fill="#ebedf0"/>
<rect x="104.00" y="71.00" width="11" height="11" rx="2" ry="2" fill="#ebedf0"/>
<rect x="104.00" y="85.00" width="11" height="11" rx="2" ry="2" fill="#ebedf0"/>
<rect x="104.00" y="99.00" width="11" height="11" rx="2" ry="2" fill="#ebedf0"/>
<rect x="118.00" y="15.00" width="11" height="11" rx="2" ry="2" fill="#ebedf0"/>
<rect x="118.00" y="29.00" width="11" height="11" rx="2" ry="2" fill="#ebedf0"/>
<rect x="118.00" y="43.00" width="11" height="11" rx="2" ry="2" fill="#ffc2e2"/>
<rect x="118.00" y="57.00" width="11" height="11" rx="2" ry="2" fill="#ebedf0"/>
<rect x="118.00" y="71.00" width="11" height="11" rx="2" ry="2" fill="#ebedf0"/>
<rect x="118.00" y="85.00" width="11" height="11" rx="2" ry="2" fill="#ebedf0"/>
<rect x="118.00" y="99.00" width="11" height="11" rx="2" ry="2" fill="#ebedf0"/>
<rect x="132.00" y="15.00" width="11" height="11" rx="2" ry="2" fill="#ebedf0"/>
<rect x="132.00" y="29.00" width="11" height="11" rx="2" ry="2" fill="#ebedf0"/>
<rect x="132.00" y="43.00" width="11" height="11" rx="2" ry="2" fill="#ebedf0"/>
<rect x="132.00" y="57.00" width="11" height="11" rx="2" ry="2" fill="#ebedf0"/>
<rect x="132.00" y="71.00" width="11" height="11" rx="2" ry="2" fill="#ebedf0"/>
<rect x="132.00" y="85.00" width="11" height="11" rx="2" ry="2" fill="#ebedf0"/>
<rect x="132.00" y="99.00" width="11" height="11" rx="2" ry="2" fill="#ebedf0"/>
<rect x="146.00" y="15.00" width="11" height="11" rx="2" ry="2" fill="#ebedf0"/>
<rect x="146.00" y="29.00" width="11" height="11" rx="2" ry="2" fill="#ebedf0"/>
<rect x="146.00" y="43.00" width="11" height="11" rx="2" ry="2" fill="#ebedf0"/>
<rect x="146.00" y="57.00" width="11" height="11" rx="2" ry="2" fill="#ebedf0"/>
<rect x="146.00" y="71.00" width="11" height="11" rx="2" ry="2" fill="#ebedf0"/>
<rect x="146.00" y="85.00" width="11" height="11" rx="2" ry="2" fill="#ebedf0"/>
<rect x="146.00" y="99.00" width="11" height="11" rx="2" ry="2" fill="#ebedf0"/>
<rect x="160.00" y="15.00" width="11" height="11" rx="2" ry="2" fill="#ebedf0"/>
<rect x="160.00" y="29.00" width="11" height="11" rx="2" ry="2" fill="#ebedf0"/>
<rect x="160.00" y="43.00" width="11" height="11" rx="2" ry="2" fill="#ebedf0"/>
<rect x="160.00" y="57.00" width="11" height="11" rx="2" ry="2" fill="#ebedf0"/>
<rect x="160.00" y="71.00" width="11" height="11" rx="2" ry="2" fill="#ebedf0"/>
<rect x="160.00" y="85.00" width="11" height="11" rx="2" ry="2" fill="#ebedf0"/>
<rect x="160.00" y="99.00" width="11" height="11" rx="2" ry="2" fill="#ebedf0"/>
<rect x="174.00" y="15.00" width="11" height="11" rx="2" ry="2" fill="#ebedf0"/>
<rect x="174.00" y="29.00" width="11" height="11" rx="2" ry="2" fill="#ebedf0"/>
<rect x="174.00" y="43.00" width="11" height="11" rx="2" ry="2" fill="#ebedf0"/>
<rect x="174.00" y="57.00" width="11" height="11" rx="2" ry="2" fill="#ebedf0"/>
<rect x="174.00" y="71.00" width="11" height="11" rx="2" ry="2" fill="#ebedf0"/>
<rect x="174.00" y="85.00" width="11" height="11" rx="2" ry="2" fill="#ebedf0"/>
<rect x="174.00" y="99.00" width="11" height="11" rx="2" ry="2" fill="#ebedf0"/>
<rect x="188.00" y="15.00" width="11" height="11" rx="2" ry="2" fill="#ebedf0"/>
<rect x="188.00" y="29.00" width="11" height="11" rx="2" ry="2" fill="#ebedf0"/>
<rect x="188.00" y="43.00" width="11" height="11" rx="2" ry="2" fill="#ebedf0"/>
<rect x="188.00" y="57.00" width="11" height="11" rx="2" ry="2" fill="#ebedf0"/>
<rect x="188.00" y="71.00" width="11" height="11" rx="2" ry="2" fill="#ebedf0"/>
<rect x="188.00" y="85.00" width="11" height="11" rx="2" ry="2" fill="#ebedf0"/>
<rect x="188.00" y="99.00" width="11" height="11" rx="2" ry="2" fill="#ebedf0"/>
<rect x="202.00" y="15.00" width="11" height="11" rx="2" ry="2" fill="#ebedf0"/>
<rect x="202.00" y="29.00" width="11" height="11" rx="2" ry="2" fill="#ebedf0"/>
<rect x="202.00" y="43.00" width="11" height="11" rx="2" ry="2" fill="#d61b6e"><animate attributeName="fill" dur="20s" repeatCount="indefinite" keyTimes="0;0.2069;0.2129;0.7931;0.7991;1" values="#d61b6e;#d61b6e;#f74799;#d61b6e;#f74799;#d61b6e"/></rect>
<rect x="202.00" y="57.00" width="11" height="11" rx="2" ry="2" fill="#d61b6e"><animate attributeName="fill" dur="20s" repeatCount="indefinite" keyTimes="0;0.2069;0.2129;0.7931;0.7991;1" values="#d61b6e;#d61b6e;#f74799;#d61b6e;#f74799;#d61b6e"/></rect>
<rect x="202.00" y="71.00" width="11" height="11" rx="2" ry="2" fill="#ff85c0"/>
<rect x="202.00" y="85.00" width="11" height="11" rx="2" ry="2" fill="#ff85c0"/>
<rect x="202.00" y="99.00" width="11" height="11" rx="2" ry="2" fill="#ebedf0"/>
<rect x="216.00" y="15.00" width="11" height="11" rx="2" ry="2" fill="#ebedf0"/>
<rect x="216.00" y="29.00" width="11" height="11" rx="2" ry="2" fill="#ebedf0"/>
<rect x="216.00" y="43.00" width="11" height="11" rx="2" ry="2" fill="#ebedf0"/>
<rect x="216.00" y="57.00" width="11" height="11" rx="2" ry="2" fill="#ebedf0"/>
<rect x="216.00" y="71.00" width="11" height="11" rx="2" ry="2" fill="#ebedf0"/>
<rect x="216.00" y="85.00" width="11" height="11" rx="2" ry="2" fill="#ffc2e2"/>
<rect x="216.00" y="99.00" width="11" height="11" rx="2" ry="2" fill="#ebedf0"/>
<rect x="230.00" y="15.00" width="11" height="11" rx="2" ry="2" fill="#ebedf0"/>
<rect x="230.00" y="29.00" width="11" height="11" rx="2" ry="2" fill="#ebedf0"/>
<rect x="230.00" y="43.00" width="11" height="11" rx="2" ry="2" fill="#ebedf0"/>
<rect x="230.00" y="57.00" width="11" height="11" rx="2" ry="2" fill="#ebedf0"/>
<rect x="230.00" y="71.00" width="11" height="11" rx="2" ry="2" fill="#ebedf0"/>
<rect x="230.00" y="85.00" width="11" height="11" rx="2" ry="2" fill="#ebedf0"/>
<rect x="230.00" y="99.00" width="11" height="11" rx="2" ry="2" fill="#ebedf0"/>
<rect x="244.00" y="15.00" width="11" height="11" rx="2" ry="2" fill="#ebedf0"/>
<rect x="244.00" y="29.00" width="11" height="11" rx="2" ry="2" fill="#ebedf0"/>
<rect x="244.00" y="43.00" width="11" height="11" rx="2" ry="2" fill="#ebedf0"/>
<rect x="244.00" y="57.00" width="11" height="11" rx="2" ry="2" fill="#ebedf0"/>
<rect x="244.00" y="71.00" width="11" height="11" rx="2" ry="2" fill="#ebedf0"/>
<rect x="244.00" y="85.00" width="11" height="11" rx="2" ry="2" fill="#ff85c0"/>
<rect x="244.00" y="99.00" width="11" height="11" rx="2" ry="2" fill="#ebedf0"/>
<rect x="258.00" y="15.00" width="11" height="11" rx="2" ry="2" fill="#ebedf0"/>
<rect x="258.00" y="29.00" width="11" height="11" rx="2" ry="2" fill="#ebedf0"/>
<rect x="258.00" y="43.00" width="11" height="11" rx="2" ry="2" fill="#ffc2e2"/>
<rect x="258.00" y="57.00" width="11" height="11" rx="2" ry="2" fill="#d61b6e"/>
<rect x="258.00" y="71.00" width="11" height="11" rx="2" ry="2" fill="#ffc2e2"/>
<rect x="258.00" y="85.00" width="11" height="11" rx="2" ry="2" fill="#ebedf0"/>
<rect x="258.00" y="99.00" width="11" height="11" rx="2" ry="2" fill="#ebedf0"/>
<rect x="272.00" y="15.00" width="11" height="11" rx="2" ry="2" fill="#ebedf0"/>
<rect x="272.00" y="29.00" width="11" height="11" rx="2" ry="2" fill="#ebedf0"/>
<rect x="272.00" y="43.00" width="11" height="11" rx="2" ry="2" fill="#ebedf0"/>
<rect x="272.00" y="57.00" width="11" height="11" rx="2" ry="2" fill="#ebedf0"/>
<rect x="272.00" y="71.00" width="11" height="11" rx="2" ry="2" fill="#ebedf0"/>
<rect x="272.00" y="85.00" width="11" height="11" rx="2" ry="2" fill="#ebedf0"/>
<rect x="272.00" y="99.00" width="11" height="11" rx="2" ry="2" fill="#ebedf0"/>
<rect x="286.00" y="15.00" width="11" height="11" rx="2" ry="2" fill="#ebedf0"/>
<rect x="286.00" y="29.00" width="11" height="11" rx="2" ry="2" fill="#ebedf0"/>
<rect x="286.00" y="43.00" width="11" height="11" rx="2" ry="2" fill="#ebedf0"/>
<rect x="286.00" y="57.00" width="11" height="11" rx="2" ry="2" fill="#ebedf0"/>
<rect x="286.00" y="71.00" width="11" height="11" rx="2" ry="2" fill="#ebedf0"/>
<rect x="286.00" y="85.00" width="11" height="11" rx="2" ry="2" fill="#ebedf0"/>
<rect x="286.00" y="99.00" width="11" height="11" rx="2" ry="2" fill="#ebedf0"/>
<rect x="300.00" y="15.00" width="11" height="11" rx="2" ry="2" fill="#ebedf0"/>
<rect x="300.00" y="29.00" width="11" height="11" rx="2" ry="2" fill="#ebedf0"/>
<rect x="300.00" y="43.00" width="11" height="11" rx="2" ry="2" fill="#ebedf0"/>
<rect x="300.00" y="57.00" width="11" height="11" rx="2" ry="2" fill="#ebedf0"/>
<rect x="300.00" y="71.00" width="11" height="11" rx="2" ry="2" fill="#ebedf0"/>
<rect x="300.00" y="85.00" width="11" height="11" rx="2" ry="2" fill="#ebedf0"/>
<rect x="300.00" y="99.00" width="11" height="11" rx="2" ry="2" fill="#ebedf0"/>
<rect x="314.00" y="15.00" width="11" height="11" rx="2" ry="2" fill="#ebedf0"/>
<rect x="314.00" y="29.00" width="11" height="11" rx="2" ry="2" fill="#ebedf0"/>
<rect x="314.00" y="43.00" width="11" height="11" rx="2" ry="2" fill="#ebedf0"/>
<rect x="314.00" y="57.00" width="11" height="11" rx="2" ry="2" fill="#ebedf0"/>
<rect x="314.00" y="71.00" width="11" height="11" rx="2" ry="2" fill="#ebedf0"/>
<rect x="314.00" y="85.00" width="11" height="11" rx="2" ry="2" fill="#ebedf0"/>
<rect x="314.00" y="99.00" width="11" height="11" rx="2" ry="2" fill="#ebedf0"/>
<rect x="328.00" y="15.00" width="11" height="11" rx="2" ry="2" fill="#ebedf0"/>
<rect x="328.00" y="29.00" width="11" height="11" rx="2" ry="2" fill="#ebedf0"/>
<rect x="328.00" y="43.00" width="11" height="11" rx="2" ry="2" fill="#ebedf0"/>
<rect x="328.00" y="57.00" width="11" height="11" rx="2" ry="2" fill="#ebedf0"/>
<rect x="328.00" y="71.00" width="11" height="11" rx="2" ry="2" fill="#ebedf0"/>
<rect x="328.00" y="85.00" width="11" height="11" rx="2" ry="2" fill="#ebedf0"/>
<rect x="328.00" y="99.00" width="11" height="11" rx="2" ry="2" fill="#ebedf0"/>
<rect x="342.00" y="15.00" width="11" height="11" rx="2" ry="2" fill="#ff85c0"/>
<rect x="342.00" y="29.00" width="11" height="11" rx="2" ry="2" fill="#ffc2e2"/>
<rect x="342.00" y="43.00" width="11" height="11" rx="2" ry="2" fill="#ebedf0"/>
<rect x="342.00" y="57.00" width="11" height="11" rx="2" ry="2" fill="#f74799"/>
<rect x="342.00" y="71.00" width="11" height="11" rx="2" ry="2" fill="#d61b6e"><animate attributeName="fill" dur="20s" repeatCount="indefinite" keyTimes="0;0.3506;0.3566;0.6494;0.6554;1" values="#d61b6e;#d61b6e;#f74799;#d61b6e;#f74799;#d61b6e"/></rect>
<rect x="342.00" y="85.00" width="11" height="11" rx="2" ry="2" fill="#ffc2e2"/>
<rect x="342.00" y="99.00" width="11" height="11" rx="2" ry="2" fill="#d61b6e"/>
<rect x="356.00" y="15.00" width="11" height="11" rx="2" ry="2" fill="#d61b6e"/>
<rect x="356.00" y="29.00" width="11" height="11" rx="2" ry="2" fill="#ff85c0"/>
<rect x="356.00" y="43.00" width="11" height="11" rx="2" ry="2" fill="#d61b6e"><animate attributeName="fill" dur="20s" repeatCount="indefinite" keyTimes="0;0.365;0.371;0.635;0.641;1" values="#d61b6e;#d61b6e;#f74799;#d61b6e;#f74799;#d61b6e"/></rect>
<rect x="356.00" y="57.00" width="11" height="11" rx="2" ry="2" fill="#f74799"/>
<rect x="356.00" y="71.00" width="11" height="11" rx="2" ry="2" fill="#ff85c0"/>
<rect x="356.00" y="85.00" width="11" height="11" rx="2" ry="2" fill="#f74799"/>
<rect x="356.00" y="99.00" width="11" height="11" rx="2" ry="2" fill="#ff85c0"/>
<rect x="370.00" y="15.00" width="11" height="11" rx="2" ry="2" fill="#ff85c0"/>
<rect x="370.00" y="29.00" width="11" height="11" rx="2" ry="2" fill="#d61b6e"><animate attributeName="fill" dur="20s" repeatCount="indefinite" keyTimes="0;0.3794;0.3854;0.6206;0.6266;1" values="#d61b6e;#d61b6e;#f74799;#d61b6e;#f74799;#d61b6e"/></rect>
<rect x="370.00" y="43.00" width="11" height="11" rx="2" ry="2" fill="#ff85c0"/>
<rect x="370.00" y="57.00" width="11" height="11" rx="2" ry="2" fill="#ffc2e2"/>
<rect x="370.00" y="71.00" width="11" height="11" rx="2" ry="2" fill="#ff85c0"/>
<rect x="370.00" y="85.00" width="11" height="11" rx="2" ry="2" fill="#ff85c0"/>
<rect x="370.00" y="99.00" width="11" height="11" rx="2" ry="2" fill="#ff85c0"/>
<rect x="384.00" y="15.00" width="11" height="11" rx="2" ry="2" fill="#ff85c0"/>
<rect x="384.00" y="29.00" width="11" height="11" rx="2" ry="2" fill="#d61b6e"/>
<rect x="384.00" y="43.00" width="11" height="11" rx="2" ry="2" fill="#ff85c0"/>
<rect x="384.00" y="57.00" width="11" height="11" rx="2" ry="2" fill="#ffc2e2"/>
<rect x="384.00" y="71.00" width="11" height="11" rx="2" ry="2" fill="#ff85c0"/>
<rect x="384.00" y="85.00" width="11" height="11" rx="2" ry="2" fill="#d61b6e"><animate attributeName="fill" dur="20s" repeatCount="indefinite" keyTimes="0;0.3938;0.3998;0.6062;0.6122;1" values="#d61b6e;#d61b6e;#f74799;#d61b6e;#f74799;#d61b6e"/></rect>
<rect x="384.00" y="99.00" width="11" height="11" rx="2" ry="2" fill="#f74799"/>
<rect x="398.00" y="15.00" width="11" height="11" rx="2" ry="2" fill="#d61b6e"><animate attributeName="fill" dur="20s" repeatCount="indefinite" keyTimes="0;0.4081;0.4141;0.5919;0.5979;1" values="#d61b6e;#d61b6e;#f74799;#d61b6e;#f74799;#d61b6e"/></rect>
<rect x="398.00" y="29.00" width="11" height="11" rx="2" ry="2" fill="#d61b6e"><animate attributeName="fill" dur="20s" repeatCount="indefinite" keyTimes="0;0.4081;0.4141;0.5919;0.5979;1" values="#d61b6e;#d61b6e;#f74799;#d61b6e;#f74799;#d61b6e"/></rect>
<rect x="398.00" y="43.00" width="11" height="11" rx="2" ry="2" fill="#d61b6e"><animate attributeName="fill" dur="20s" repeatCount="indefinite" keyTimes="0;0.4081;0.4141;0.5919;0.5979;1" values="#d61b6e;#d61b6e;#f74799;#d61b6e;#f74799;#d61b6e"/></rect>
<rect x="398.00" y="57.00" width="11" height="11" rx="2" ry="2" fill="#ffc2e2"/>
<rect x="398.00" y="71.00" width="11" height="11" rx="2" ry="2" fill="#d61b6e"><animate attributeName="fill" dur="20s" repeatCount="indefinite" keyTimes="0;0.4081;0.4141;0.5919;0.5979;1" values="#d61b6e;#d61b6e;#f74799;#d61b6e;#f74799;#d61b6e"/></rect>
<rect x="398.00" y="85.00" width="11" height="11" rx="2" ry="2" fill="#f74799"/>
<rect x="398.00" y="99.00" width="11" height="11" rx="2" ry="2" fill="#f74799"/>
<rect x="412.00" y="15.00" width="11" height="11" rx="2" ry="2" fill="#f74799"/>
<rect x="412.00" y="29.00" width="11" height="11" rx="2" ry="2" fill="#ffc2e2"/>
<rect x="412.00" y="43.00" width="11" height="11" rx="2" ry="2" fill="#ebedf0"/>
<rect x="412.00" y="57.00" width="11" height="11" rx="2" ry="2" fill="#ffc2e2"/>
<rect x="412.00" y="71.00" width="11" height="11" rx="2" ry="2" fill="#d61b6e"><animate attributeName="fill" dur="20s" repeatCount="indefinite" keyTimes="0;0.4225;0.4285;0.5775;0.5835;1" values="#d61b6e;#d61b6e;#f74799;#d61b6e;#f74799;#d61b6e"/></rect>
<rect x="412.00" y="85.00" width="11" height="11" rx="2" ry="2" fill="#ffc2e2"/>
<rect x="412.00" y="99.00" width="11" height="11" rx="2" ry="2" fill="#f74799"/>
<rect x="426.00" y="15.00" width="11" height="11" rx="2" ry="2" fill="#d61b6e"/>
<rect x="426.00" y="29.00" width="11" height="11" rx="2" ry="2" fill="#ff85c0"/>
<rect x="426.00" y="43.00" width="11" height="11" rx="2" ry="2" fill="#f74799"/>
<rect x="426.00" y="57.00" width="11" height="11" rx="2" ry="2" fill="#d61b6e"/>
<rect x="426.00" y="71.00" width="11" height="11" rx="2" ry="2" fill="#ff85c0"/>
<rect x="426.00" y="85.00" width="11" height="11" rx="2" ry="2" fill="#d61b6e"><animate attributeName="fill" dur="20s" repeatCount="indefinite" keyTimes="0;0.4369;0.4429;0.5631;0.5691;1" values="#d61b6e;#d61b6e;#f74799;#d61b6e;#f74799;#d61b6e"/></rect>
<rect x="426.00" y="99.00" width="11" height="11" rx="2" ry="2" fill="#d61b6e"/>
<rect x="440.00" y="15.00" width="11" height="11" rx="2" ry="2" fill="#ff85c0"/>
<rect x="440.00" y="29.00" width="11" height="11" rx="2" ry="2" fill="#ffc2e2"/>
<rect x="440.00" y="43.00" width="11" height="11" rx="2" ry="2" fill="#ff85c0"/>
<rect x="440.00" y="57.00" width="11" height="11" rx="2" ry="2" fill="#f74799"/>
<rect x="440.00" y="71.00" width="11" height="11" rx="2" ry="2" fill="#d61b6e"/>
<rect x="440.00" y="85.00" width="11" height="11" rx="2" ry="2" fill="#ff85c0"/>
<rect x="440.00" y="99.00" width="11" height="11" rx="2" ry="2" fill="#ffc2e2"/>
<rect x="454.00" y="15.00" width="11" height="11" rx="2" ry="2" fill="#ffc2e2"/>
<rect x="454.00" y="29.00" width="11" height="11" rx="2" ry="2" fill="#ffc2e2"/>
<rect x="454.00" y="43.00" width="11" height="11" rx="2" ry="2" fill="#ffc2e2"/>
<rect x="454.00" y="57.00" width="11" height="11" rx="2" ry="2" fill="#ffc2e2"/>
<rect x="454.00" y="71.00" width="11" height="11" rx="2" ry="2" fill="#ffc2e2"/>
<rect x="454.00" y="85.00" width="11" height="11" rx="2" ry="2" fill="#ff85c0"/>
<rect x="454.00" y="99.00" width="11" height="11" rx="2" ry="2" fill="#ffc2e2"/>
<rect x="468.00" y="15.00" width="11" height="11" rx="2" ry="2" fill="#ffc2e2"/>
<rect x="468.00" y="29.00" width="11" height="11" rx="2" ry="2" fill="#ffc2e2"/>
<rect x="468.00" y="43.00" width="11" height="11" rx="2" ry="2" fill="#ffc2e2"/>
<rect x="468.00" y="57.00" width="11" height="11" rx="2" ry="2" fill="#ff85c0"/>
<rect x="468.00" y="71.00" width="11" height="11" rx="2" ry="2" fill="#ebedf0"/>
</g>
<g id="bullets">
<circle cx="207.5" cy="128" r="2.4" fill="#d61b6e"><animate attributeName="cy" dur="20s" repeatCount="indefinite" keyTimes="0;0.1889;0.2069;1" values="128;128;48.5;48.5"/><animate attributeName="opacity" dur="20s" repeatCount="indefinite" keyTimes="0;0.1889;0.2069;0.2129;1" values="0;1;1;0;0"/></circle>
<circle cx="207.5" cy="128" r="2.4" fill="#d61b6e"><animate attributeName="cy" dur="20s" repeatCount="indefinite" keyTimes="0;0.1889;0.2069;1" values="128;128;62.5;62.5"/><animate attributeName="opacity" dur="20s" repeatCount="indefinite" keyTimes="0;0.1889;0.2069;0.2129;1" values="0;1;1;0;0"/></circle>
<circle cx="347.5" cy="128" r="2.4" fill="#d61b6e"><animate attributeName="cy" dur="20s" repeatCount="indefinite" keyTimes="0;0.3326;0.3506;1" values="128;128;76.5;76.5"/><animate attributeName="opacity" dur="20s" repeatCount="indefinite" keyTimes="0;0.3326;0.3506;0.3566;1" values="0;1;1;0;0"/></circle>
<circle cx="361.5" cy="128" r="2.4" fill="#d61b6e"><animate attributeName="cy" dur="20s" repeatCount="indefinite" keyTimes="0;0.347;0.365;1" values="128;128;48.5;48.5"/><animate attributeName="opacity" dur="20s" repeatCount="indefinite" keyTimes="0;0.347;0.365;0.371;1" values="0;1;1;0;0"/></circle>
<circle cx="375.5" cy="128" r="2.4" fill="#d61b6e"><animate attributeName="cy" dur="20s" repeatCount="indefinite" keyTimes="0;0.3614;0.3794;1" values="128;128;34.5;34.5"/><animate attributeName="opacity" dur="20s" repeatCount="indefinite" keyTimes="0;0.3614;0.3794;0.3854;1" values="0;1;1;0;0"/></circle>
<circle cx="389.5" cy="128" r="2.4" fill="#d61b6e"><animate attributeName="cy" dur="20s" repeatCount="indefinite" keyTimes="0;0.3758;0.3938;1" values="128;128;90.5;90.5"/><animate attributeName="opacity" dur="20s" repeatCount="indefinite" keyTimes="0;0.3758;0.3938;0.3998;1" values="0;1;1;0;0"/></circle>
<circle cx="403.5" cy="128" r="2.4" fill="#d61b6e"><animate attributeName="cy" dur="20s" repeatCount="indefinite" keyTimes="0;0.3901;0.4081;1" values="128;128;20.5;20.5"/><animate attributeName="opacity" dur="20s" repeatCount="indefinite" keyTimes="0;0.3901;0.4081;0.4141;1" values="0;1;1;0;0"/></circle>
<circle cx="403.5" cy="128" r="2.4" fill="#d61b6e"><animate attributeName="cy" dur="20s" repeatCount="indefinite" keyTimes="0;0.3901;0.4081;1" values="128;128;34.5;34.5"/><animate attributeName="opacity" dur="20s" repeatCount="indefinite" keyTimes="0;0.3901;0.4081;0.4141;1" values="0;1;1;0;0"/></circle>
<circle cx="403.5" cy="128" r="2.4" fill="#d61b6e"><animate attributeName="cy" dur="20s" repeatCount="indefinite" keyTimes="0;0.3901;0.4081;1" values="128;128;48.5;48.5"/><animate attributeName="opacity" dur="20s" repeatCount="indefinite" keyTimes="0;0.3901;0.4081;0.4141;1" values="0;1;1;0;0"/></circle>
<circle cx="403.5" cy="128" r="2.4" fill="#d61b6e"><animate attributeName="cy" dur="20s" repeatCount="indefinite" keyTimes="0;0.3901;0.4081;1" values="128;128;76.5;76.5"/><animate attributeName="opacity" dur="20s" repeatCount="indefinite" keyTimes="0;0.3901;0.4081;0.4141;1" values="0;1;1;0;0"/></circle>
<circle cx="417.5" cy="128" r="2.4" fill="#d61b6e"><animate attributeName="cy" dur="20s" repeatCount="indefinite" keyTimes="0;0.4045;0.4225;1" values="128;128;76.5;76.5"/><animate attributeName="opacity" dur="20s" repeatCount="indefinite" keyTimes="0;0.4045;0.4225;0.4285;1" values="0;1;1;0;0"/></circle>
<circle cx="431.5" cy="128" r="2.4" fill="#d61b6e"><animate attributeName="cy" dur="20s" repeatCount="indefinite" keyTimes="0;0.4189;0.4369;1" values="128;128;90.5;90.5"/><animate attributeName="opacity" dur="20s" repeatCount="indefinite" keyTimes="0;0.4189;0.4369;0.4429;1" values="0;1;1;0;0"/></circle>
<circle cx="431.5" cy="128" r="2.4" fill="#d61b6e"><animate attributeName="cy" dur="20s" repeatCount="indefinite" keyTimes="0;0.5451;0.5631;1" values="128;128;90.5;90.5"/><animate attributeName="opacity" dur="20s" repeatCount="indefinite" keyTimes="0;0.5451;0.5631;0.5691;1" values="0;1;1;0;0"/></circle>
<circle cx="417.5" cy="128" r="2.4" fill="#d61b6e"><animate attributeName="cy" dur="20s" repeatCount="indefinite" keyTimes="0;0.5595;0.5775;1" values="128;128;76.5;76.5"/><animate attributeName="opacity" dur="20s" repeatCount="indefinite" keyTimes="0;0.5595;0.5775;0.5835;1" values="0;1;1;0;0"/></circle>
<circle cx="403.5" cy="128" r="2.4" fill="#d61b6e"><animate attributeName="cy" dur="20s" repeatCount="indefinite" keyTimes="0;0.5739;0.5919;1" values="128;128;76.5;76.5"/><animate attributeName="opacity" dur="20s" repeatCount="indefinite" keyTimes="0;0.5739;0.5919;0.5979;1" values="0;1;1;0;0"/></circle>
<circle cx="403.5" cy="128" r="2.4" fill="#d61b6e"><animate attributeName="cy" dur="20s" repeatCount="indefinite" keyTimes="0;0.5739;0.5919;1" values="128;128;48.5;48.5"/><animate attributeName="opacity" dur="20s" repeatCount="indefinite" keyTimes="0;0.5739;0.5919;0.5979;1" values="0;1;1;0;0"/></circle>
<circle cx="403.5" cy="128" r="2.4" fill="#d61b6e"><animate attributeName="cy" dur="20s" repeatCount="indefinite" keyTimes="0;0.5739;0.5919;1" values="128;128;34.5;34.5"/><animate attributeName="opacity" dur="20s" repeatCount="indefinite" keyTimes="0;0.5739;0.5919;0.5979;1" values="0;1;1;0;0"/></circle>
<circle cx="403.5" cy="128" r="2.4" fill="#d61b6e"><animate attributeName="cy" dur="20s" repeatCount="indefinite" keyTimes="0;0.5739;0.5919;1" values="128;128;20.5;20.5"/><animate attributeName="opacity" dur="20s" repeatCount="indefinite" keyTimes="0;0.5739;0.5919;0.5979;1" values="0;1;1;0;0"/></circle>
<circle cx="389.5" cy="128" r="2.4" fill="#d61b6e"><animate attributeName="cy" dur="20s" repeatCount="indefinite" keyTimes="0;0.5882;0.6062;1" values="128;128;90.5;90.5"/><animate attributeName="opacity" dur="20s" repeatCount="indefinite" keyTimes="0;0.5882;0.6062;0.6122;1" values="0;1;1;0;0"/></circle>
<circle cx="375.5" cy="128" r="2.4" fill="#d61b6e"><animate attributeName="cy" dur="20s" repeatCount="indefinite" keyTimes="0;0.6026;0.6206;1" values="128;128;34.5;34.5"/><animate attributeName="opacity" dur="20s" repeatCount="indefinite" keyTimes="0;0.6026;0.6206;0.6266;1" values="0;1;1;0;0"/></circle>
<circle cx="361.5" cy="128" r="2.4" fill="#d61b6e"><animate attributeName="cy" dur="20s" repeatCount="indefinite" keyTimes="0;0.617;0.635;1" values="128;128;48.5;48.5"/><animate attributeName="opacity" dur="20s" repeatCount="indefinite" keyTimes="0;0.617;0.635;0.641;1" values="0;1;1;0;0"/></circle>
<circle cx="347.5" cy="128" r="2.4" fill="#d61b6e"><animate attributeName="cy" dur="20s" repeatCount="indefinite" keyTimes="0;0.6314;0.6494;1" values="128;128;76.5;76.5"/><animate attributeName="opacity" dur="20s" repeatCount="indefinite" keyTimes="0;0.6314;0.6494;0.6554;1" values="0;1;1;0;0"/></circle>
<circle cx="207.5" cy="128" r="2.4" fill="#d61b6e"><animate attributeName="cy" dur="20s" repeatCount="indefinite" keyTimes="0;0.7751;0.7931;1" values="128;128;62.5;62.5"/><animate attributeName="opacity" dur="20s" repeatCount="indefinite" keyTimes="0;0.7751;0.7931;0.7991;1" values="0;1;1;0;0"/></circle>
<circle cx="207.5" cy="128" r="2.4" fill="#d61b6e"><animate attributeName="cy" dur="20s" repeatCount="indefinite" keyTimes="0;0.7751;0.7931;1" values="128;128;48.5;48.5"/><animate attributeName="opacity" dur="20s" repeatCount="indefinite" keyTimes="0;0.7751;0.7931;0.7991;1" values="0;1;1;0;0"/></circle>
</g>
<g id="blasts">
<circle cx="207.5" cy="48.5" r="0" fill="none" stroke="#f74799" stroke-width="1.6" opacity="0"><animate attributeName="r" dur="20s" repeatCount="indefinite" keyTimes="0;0.2069;0.2249;1" values="0;1;9;9"/><animate attributeName="opacity" dur="20s" repeatCount="indefinite" keyTimes="0;0.2069;0.2249;1" values="0;1;1;0"/></circle>
<circle cx="207.5" cy="62.5" r="0" fill="none" stroke="#f74799" stroke-width="1.6" opacity="0"><animate attributeName="r" dur="20s" repeatCount="indefinite" keyTimes="0;0.2069;0.2249;1" values="0;1;9;9"/><animate attributeName="opacity" dur="20s" repeatCount="indefinite" keyTimes="0;0.2069;0.2249;1" values="0;1;1;0"/></circle>
<circle cx="347.5" cy="76.5" r="0" fill="none" stroke="#f74799" stroke-width="1.6" opacity="0"><animate attributeName="r" dur="20s" repeatCount="indefinite" keyTimes="0;0.3506;0.3686;1" values="0;1;9;9"/><animate attributeName="opacity" dur="20s" repeatCount="indefinite" keyTimes="0;0.3506;0.3686;1" values="0;1;1;0"/></circle>
<circle cx="361.5" cy="48.5" r="0" fill="none" stroke="#f74799" stroke-width="1.6" opacity="0"><animate attributeName="r" dur="20s" repeatCount="indefinite" keyTimes="0;0.365;0.383;1" values="0;1;9;9"/><animate attributeName="opacity" dur="20s" repeatCount="indefinite" keyTimes="0;0.365;0.383;1" values="0;1;1;0"/></circle>
<circle cx="375.5" cy="34.5" r="0" fill="none" stroke="#f74799" stroke-width="1.6" opacity="0"><animate attributeName="r" dur="20s" repeatCount="indefinite" keyTimes="0;0.3794;0.3974;1" values="0;1;9;9"/><animate attributeName="opacity" dur="20s" repeatCount="indefinite" keyTimes="0;0.3794;0.3974;1" values="0;1;1;0"/></circle>
<circle cx="389.5" cy="90.5" r="0" fill="none" stroke="#f74799" stroke-width="1.6" opacity="0"><animate attributeName="r" dur="20s" repeatCount="indefinite" keyTimes="0;0.3938;0.4118;1" values="0;1;9;9"/><animate attributeName="opacity" dur="20s" repeatCount="indefinite" keyTimes="0;0.3938;0.4118;1" values="0;1;1;0"/></circle>
<circle cx="403.5" cy="20.5" r="0" fill="none" stroke="#f74799" stroke-width="1.6" opacity="0"><animate attributeName="r" dur="20s" repeatCount="indefinite" keyTimes="0;0.4081;0.4261;1" values="0;1;9;9"/><animate attributeName="opacity" dur="20s" repeatCount="indefinite" keyTimes="0;0.4081;0.4261;1" values="0;1;1;0"/></circle>
<circle cx="403.5" cy="34.5" r="0" fill="none" stroke="#f74799" stroke-width="1.6" opacity="0"><animate attributeName="r" dur="20s" repeatCount="indefinite" keyTimes="0;0.4081;0.4261;1" values="0;1;9;9"/><animate attributeName="opacity" dur="20s" repeatCount="indefinite" keyTimes="0;0.4081;0.4261;1" values="0;1;1;0"/></circle>
<circle cx="403.5" cy="48.5" r="0" fill="none" stroke="#f74799" stroke-width="1.6" opacity="0"><animate attributeName="r" dur="20s" repeatCount="indefinite" keyTimes="0;0.4081;0.4261;1" values="0;1;9;9"/><animate attributeName="opacity" dur="20s" repeatCount="indefinite" keyTimes="0;0.4081;0.4261;1" values="0;1;1;0"/></circle>
<circle cx="403.5" cy="76.5" r="0" fill="none" stroke="#f74799" stroke-width="1.6" opacity="0"><animate attributeName="r" dur="20s" repeatCount="indefinite" keyTimes="0;0.4081;0.4261;1" values="0;1;9;9"/><animate attributeName="opacity" dur="20s" repeatCount="indefinite" keyTimes="0;0.4081;0.4261;1" values="0;1;1;0"/></circle>
<circle cx="417.5" cy="76.5" r="0" fill="none" stroke="#f74799" stroke-width="1.6" opacity="0"><animate attributeName="r" dur="20s" repeatCount="indefinite" keyTimes="0;0.4225;0.4405;1" values="0;1;9;9"/><animate attributeName="opacity" dur="20s" repeatCount="indefinite" keyTimes="0;0.4225;0.4405;1" values="0;1;1;0"/></circle>
<circle cx="431.5" cy="90.5" r="0" fill="none" stroke="#f74799" stroke-width="1.6" opacity="0"><animate attributeName="r" dur="20s" repeatCount="indefinite" keyTimes="0;0.4369;0.4549;1" values="0;1;9;9"/><animate attributeName="opacity" dur="20s" repeatCount="indefinite" keyTimes="0;0.4369;0.4549;1" values="0;1;1;0"/></circle>
<circle cx="431.5" cy="90.5" r="0" fill="none" stroke="#f74799" stroke-width="1.6" opacity="0"><animate attributeName="r" dur="20s" repeatCount="indefinite" keyTimes="0;0.5631;0.5811;1" values="0;1;9;9"/><animate attributeName="opacity" dur="20s" repeatCount="indefinite" keyTimes="0;0.5631;0.5811;1" values="0;1;1;0"/></circle>
<circle cx="417.5" cy="76.5" r="0" fill="none" stroke="#f74799" stroke-width="1.6" opacity="0"><animate attributeName="r" dur="20s" repeatCount="indefinite" keyTimes="0;0.5775;0.5955;1" values="0;1;9;9"/><animate attributeName="opacity" dur="20s" repeatCount="indefinite" keyTimes="0;0.5775;0.5955;1" values="0;1;1;0"/></circle>
<circle cx="403.5" cy="76.5" r="0" fill="none" stroke="#f74799" stroke-width="1.6" opacity="0"><animate attributeName="r" dur="20s" repeatCount="indefinite" keyTimes="0;0.5919;0.6099;1" values="0;1;9;9"/><animate attributeName="opacity" dur="20s" repeatCount="indefinite" keyTimes="0;0.5919;0.6099;1" values="0;1;1;0"/></circle>
<circle cx="403.5" cy="48.5" r="0" fill="none" stroke="#f74799" stroke-width="1.6" opacity="0"><animate attributeName="r" dur="20s" repeatCount="indefinite" keyTimes="0;0.5919;0.6099;1" values="0;1;9;9"/><animate attributeName="opacity" dur="20s" repeatCount="indefinite" keyTimes="0;0.5919;0.6099;1" values="0;1;1;0"/></circle>
<circle cx="403.5" cy="34.5" r="0" fill="none" stroke="#f74799" stroke-width="1.6" opacity="0"><animate attributeName="r" dur="20s" repeatCount="indefinite" keyTimes="0;0.5919;0.6099;1" values="0;1;9;9"/><animate attributeName="opacity" dur="20s" repeatCount="indefinite" keyTimes="0;0.5919;0.6099;1" values="0;1;1;0"/></circle>
<circle cx="403.5" cy="20.5" r="0" fill="none" stroke="#f74799" stroke-width="1.6" opacity="0"><animate attributeName="r" dur="20s" repeatCount="indefinite" keyTimes="0;0.5919;0.6099;1" values="0;1;9;9"/><animate attributeName="opacity" dur="20s" repeatCount="indefinite" keyTimes="0;0.5919;0.6099;1" values="0;1;1;0"/></circle>
<circle cx="389.5" cy="90.5" r="0" fill="none" stroke="#f74799" stroke-width="1.6" opacity="0"><animate attributeName="r" dur="20s" repeatCount="indefinite" keyTimes="0;0.6062;0.6242;1" values="0;1;9;9"/><animate attributeName="opacity" dur="20s" repeatCount="indefinite" keyTimes="0;0.6062;0.6242;1" values="0;1;1;0"/></circle>
<circle cx="375.5" cy="34.5" r="0" fill="none" stroke="#f74799" stroke-width="1.6" opacity="0"><animate attributeName="r" dur="20s" repeatCount="indefinite" keyTimes="0;0.6206;0.6386;1" values="0;1;9;9"/><animate attributeName="opacity" dur="20s" repeatCount="indefinite" keyTimes="0;0.6206;0.6386;1" values="0;1;1;0"/></circle>
<circle cx="361.5" cy="48.5" r="0" fill="none" stroke="#f74799" stroke-width="1.6" opacity="0"><animate attributeName="r" dur="20s" repeatCount="indefinite" keyTimes="0;0.635;0.653;1" values="0;1;9;9"/><animate attributeName="opacity" dur="20s" repeatCount="indefinite" keyTimes="0;0.635;0.653;1" values="0;1;1;0"/></circle>
<circle cx="347.5" cy="76.5" r="0" fill="none" stroke="#f74799" stroke-width="1.6" opacity="0"><animate attributeName="r" dur="20s" repeatCount="indefinite" keyTimes="0;0.6494;0.6674;1" values="0;1;9;9"/><animate attributeName="opacity" dur="20s" repeatCount="indefinite" keyTimes="0;0.6494;0.6674;1" values="0;1;1;0"/></circle>
<circle cx="207.5" cy="62.5" r="0" fill="none" stroke="#f74799" stroke-width="1.6" opacity="0"><animate attributeName="r" dur="20s" repeatCount="indefinite" keyTimes="0;0.7931;0.8111;1" values="0;1;9;9"/><animate attributeName="opacity" dur="20s" repeatCount="indefinite" keyTimes="0;0.7931;0.8111;1" values="0;1;1;0"/></circle>
<circle cx="207.5" cy="48.5" r="0" fill="none" stroke="#f74799" stroke-width="1.6" opacity="0"><animate attributeName="r" dur="20s" repeatCount="indefinite" keyTimes="0;0.7931;0.8111;1" values="0;1;9;9"/><animate attributeName="opacity" dur="20s" repeatCount="indefinite" keyTimes="0;0.7931;0.8111;1" values="0;1;1;0"/></circle>
</g>
<g id="jet">
  <g transform="translate(0,0)">
    <polygon points="0,-16 8,6 4,3 -4,3 -8,6" fill="#f74799" stroke="#b0125b" stroke-width="1"/>
    <polygon points="-8,6 -14,12 -4,7" fill="#d61b6e"/>
    <polygon points="8,6 14,12 4,7" fill="#d61b6e"/>
    <circle cx="0" cy="-6" r="2.2" fill="#fff0f6"/>
    <polygon points="-3,7 3,7 0,15" fill="#ff69b4">
      <animate attributeName="opacity" values="0.5;1;0.6;1" dur="0.18s" repeatCount="indefinite"/>
    </polygon>
  </g>
  <animateTransform attributeName="transform" attributeType="XML" type="translate"
    dur="20s" repeatCount="indefinite"
    keyTimes="0;0.5;1"
    values="35.00,140.00;478.00,140.00;35.00,140.00"/>
</g>
</svg>